<?xml version="1.0" encoding="UTF-8"?>
<svg version="1.1" xmlns="http://www.w3.org/2000/svg" width="1920" height="1570">
<path d="M0 0 C633.6 0 1267.2 0 1920 0 C1920 518.1 1920 1036.2 1920 1570 C1286.4 1570 652.8 1570 0 1570 C0 1051.9 0 533.8 0 0 Z " fill="#000000" transform="translate(0,0)"/>
<path d="M0 0 C0.33 0 0.66 0 1 0 C1 300.63 1 601.26 1 911 C-402.92 911 -806.84 911 -1223 911 C-1224.32 903.74 -1225.64 896.48 -1227 889 C-1228.36290014 884.80588189 -1229.67533579 881.04327088 -1231.4375 877.0625 C-1231.85999023 876.05582275 -1232.28248047 875.04914551 -1232.71777344 874.01196289 C-1233.63347318 871.83626952 -1234.55901967 869.66469792 -1235.49365234 867.49707031 C-1237.12823964 863.70228451 -1238.73375836 859.89611713 -1240.33203125 856.0859375 C-1240.61367126 855.41499054 -1240.89531128 854.74404358 -1241.18548584 854.05276489 C-1242.04078015 852.01453427 -1242.89547027 849.97605127 -1243.75 847.9375 C-1244.03224426 847.26446838 -1244.31448853 846.59143677 -1244.60528564 845.89801025 C-1245.95113816 842.68813211 -1247.2954868 839.47764072 -1248.63623047 836.265625 C-1249.43174177 834.3607272 -1250.22925011 832.45665664 -1251.03173828 830.5546875 C-1258.55753714 812.57952296 -1262.74260639 792.95541995 -1267 774 C-1267.2784375 772.78570313 -1267.556875 771.57140625 -1267.84375 770.3203125 C-1269.76390664 760.97097836 -1270.76340342 751.55249541 -1271.6875 742.0625 C-1271.78756348 741.04872284 -1271.78756348 741.04872284 -1271.88964844 740.01446533 C-1272.60797522 732.65139248 -1273.17056228 725.3991542 -1273 718 C-1263.90092165 719.76075915 -1254.81909833 721.57575319 -1245.77734375 723.61328125 C-1227.92307251 727.6334333 -1210.04459701 731.05307905 -1191.98365784 734.01083374 C-1187.87907421 734.68375182 -1183.78134236 735.38577258 -1179.6875 736.12109375 C-1164.30207994 738.85853687 -1148.84101994 740.6161992 -1133.3129425 742.30503845 C-1127.87989492 742.89731535 -1122.45357199 743.53709471 -1117.02783203 744.19311523 C-1111.6890781 744.83125196 -1106.34568808 745.42312719 -1101 746 C-1099.30931396 746.18344971 -1099.30931396 746.18344971 -1097.58447266 746.37060547 C-1047.98404893 751.59492075 -998.02291167 752.64250927 -948.1918335 752.03710938 C-945.25241352 752.00293465 -942.31305918 751.97631183 -939.37353516 751.953125 C-889.72865535 751.53038203 -840.22758366 747.22003916 -791 741 C-790.18940125 740.89860718 -789.37880249 740.79721436 -788.54364014 740.69274902 C-774.51520839 738.93784441 -760.59822718 736.88450167 -746.734375 734.109375 C-742.42233211 733.25559667 -738.10039656 732.49519556 -733.765625 731.765625 C-693.87596263 725.04070674 -654.31415644 716.30287015 -615.53955078 704.75341797 C-612.30304656 703.79323223 -609.05955239 702.86139566 -605.8125 701.9375 C-604.81855225 701.65350342 -603.82460449 701.36950684 -602.80053711 701.0769043 C-600.0284707 700.29142316 -597.25443552 699.51711984 -594.47705078 698.75097656 C-581.82788194 695.23453521 -569.4349812 691.19649532 -557.0625 686.8125 C-555.17504062 686.14782278 -553.2875069 685.48335662 -551.39990234 684.8190918 C-546.76955441 683.18667551 -542.14269512 681.54466046 -537.51776123 679.89697266 C-535.20521836 679.07311069 -532.89197654 678.25124218 -530.57861328 677.4296875 C-484.87257458 661.1663732 -439.11956644 641.79353564 -396.53515625 618.390625 C-393.49969684 616.7255656 -390.45246374 615.08279962 -387.40625 613.4375 C-370.27465607 604.14756666 -353.55627947 594.27684914 -337 584 C-336.07413086 583.42733398 -335.14826172 582.85466797 -334.19433594 582.26464844 C-323.24449899 575.47993104 -312.54573218 568.3954072 -302 561 C-300.59639421 560.02207794 -299.19274761 559.04421446 -297.7890625 558.06640625 C-275.23444372 542.3020935 -253.67621633 525.31126785 -232.73095703 507.47216797 C-230.92651182 505.93749877 -229.11762481 504.40816579 -227.30859375 502.87890625 C-219.23605856 496.0369182 -219.23605856 496.0369182 -211.65844727 488.6574707 C-210.08223224 487.08218382 -208.45341886 485.66506472 -206.74609375 484.234375 C-200.52818642 478.82715866 -194.77801951 472.92674369 -188.96362305 467.09399414 C-186.94235732 465.0673702 -184.91580426 463.04614453 -182.88867188 461.02539062 C-176.7120681 454.85197233 -170.640059 448.67394968 -165 442 C-163.38032183 440.22429779 -161.75588282 438.45291693 -160.125 436.6875 C-156.08597847 432.25368689 -152.22493122 427.71945416 -148.4609375 423.05078125 C-146.66719764 420.82711326 -144.86127617 418.61801522 -143.0390625 416.41796875 C-130.69440003 401.46953208 -119.45581701 385.86050671 -108.6875 369.75 C-108.27120331 369.1287323 -107.85490662 368.5074646 -107.42599487 367.86737061 C-99.51888688 356.04432615 -92.05619222 343.95934322 -85.1875 331.5 C-84.78281494 330.76700684 -84.37812988 330.03401367 -83.96118164 329.27880859 C-70.54567033 304.83570125 -59.20514083 280.12698053 -49.19677734 254.10449219 C-48.19068754 251.49465172 -47.17181984 248.89059988 -46.14453125 246.2890625 C-42.67793929 237.42238102 -40.03689533 228.44250183 -37.60449219 219.25146484 C-37.01986972 217.0740059 -36.41028403 214.90555411 -35.7890625 212.73828125 C-32.99490176 202.96597478 -30.56087976 193.13349061 -28.23291016 183.23999023 C-26.78049701 177.10991126 -25.20233848 171.04668442 -23.4375 165 C-20.49995017 154.820093 -18.57799981 144.4388263 -16.58642578 134.04052734 C-15.56968544 128.76888529 -14.49680916 123.50855967 -13.43139648 118.24658203 C-12.94679577 115.83246775 -12.47202396 113.41660684 -12 111 C-11.76949951 109.82840332 -11.53899902 108.65680664 -11.30151367 107.44970703 C-9.40410484 97.6717672 -7.84915345 87.87638778 -6.5625 78 C-6.45805573 77.20681366 -6.35361145 76.41362732 -6.2460022 75.59640503 C-2.99491878 50.51473122 -1.60038408 25.22954791 0 0 Z " fill="#FEFEFE" transform="translate(1919,659)"/>
<path d="M0 0 C0.33 0 0.66 0 1 0 C1.04753418 1.22114502 1.09506836 2.44229004 1.14404297 3.70043945 C1.64805018 15.60580026 2.62444232 27.36781468 4.125 39.1875 C4.23159943 40.03907684 4.33819885 40.89065369 4.44802856 41.76803589 C6.64200888 59.08556208 9.94262896 76.0294435 14 93 C14.25394531 94.07507813 14.50789062 95.15015625 14.76953125 96.2578125 C33.3966561 174.15306189 73.70544781 247.84818123 124.57617188 309.27636719 C126.58840473 311.71230065 128.5730775 314.17042475 130.5625 316.625 C145.13261699 334.36253372 160.79595229 350.87889152 177 367.125 C177.58435822 367.71203705 178.16871643 368.2990741 178.77078247 368.90390015 C184.47474608 374.62770293 190.16150291 380.31200989 196.31396484 385.55908203 C198.884806 387.75617217 201.33797298 390.07005595 203.8125 392.375 C208.46038542 396.6687538 213.24416348 400.7353184 218.17578125 404.703125 C220.66271463 406.72569323 223.10366776 408.79247603 225.53344727 410.88305664 C233.11965773 417.39865603 241.0229481 423.45368873 249 429.48046875 C250.80188939 430.84948237 252.59175403 432.23183908 254.375 433.625 C280.18858387 453.75959542 307.92553851 471.5240681 336.04443359 488.24169922 C338.57355566 489.74630331 341.0951543 491.26226471 343.61328125 492.78515625 C356.14939912 500.32296982 369.08168558 507.14600107 382 514 C383.0425293 514.55623047 384.08505859 515.11246094 385.15917969 515.68554688 C401.50579512 524.39476676 418.1304585 532.35775805 435 540 C436.67449219 540.76376953 436.67449219 540.76376953 438.3828125 541.54296875 C465.57208126 553.92777618 493.32809245 564.62328663 521.375 574.87109375 C522.47554718 575.27568314 522.47554718 575.27568314 523.59832764 575.68844604 C527.09763076 576.96920884 530.60160217 578.21033425 534.14428711 579.36621094 C534.79095337 579.58189224 535.43761963 579.79757355 536.10388184 580.01979065 C537.83873868 580.59491362 539.57921936 581.15299473 541.32006836 581.7097168 C544.40498054 583.19498243 545.22643537 584.27321271 546.5625 587.375 C547.07571118 589.24096891 547.55076423 591.11760447 548 593 C548.62305096 594.87514375 549.24710631 596.75004685 549.89233398 598.61767578 C550.74380846 601.0886578 551.55189205 603.57348047 552.36401367 606.05761719 C558.93525443 626.12701892 566.18844518 645.79851145 575 665 C575.46809082 666.02125977 575.93618164 667.04251953 576.41845703 668.09472656 C585.74664921 688.29801273 596.12116259 707.82076541 609 726 C609.52319824 726.73959961 610.04639648 727.47919922 610.58544922 728.24121094 C618.08730221 738.77628068 625.96217047 748.82417337 634.60693359 758.44384766 C635.80025923 759.77687563 636.97439846 761.12703647 638.14453125 762.48046875 C643.36460113 768.46244232 648.96158594 774.06409231 654.5625 779.6875 C655.3663916 780.49606445 656.1702832 781.30462891 656.99853516 782.13769531 C661.8378331 786.96408846 666.80270967 791.56293823 672 796 C673.66901428 797.45564598 675.33619953 798.9133975 677 800.375 C677.763125 801.04273438 678.52625 801.71046875 679.3125 802.3984375 C679.869375 802.92695312 680.42625 803.45546875 681 804 C681 804.33 681 804.66 681 805 C456.27 805 231.54 805 0 805 C0 539.35 0 273.7 0 0 Z " fill="#FEFEFE" transform="translate(0,765)"/>
<path d="M0 0 C395.34 0 790.68 0 1198 0 C1198 0.33 1198 0.66 1198 1 C1197.03255859 1.03963867 1196.06511719 1.07927734 1195.06835938 1.12011719 C1131.49065914 3.76250733 1068.14798106 8.04692199 1005 16 C1003.77410156 16.15355957 1002.54820312 16.30711914 1001.28515625 16.46533203 C991.11567002 17.74558691 980.96118276 19.12704019 970.8125 20.5625 C969.5917981 20.73483154 969.5917981 20.73483154 968.34643555 20.91064453 C963.00291607 21.67829431 957.67849477 22.53842673 952.35522461 23.43530273 C948.6209327 24.06379849 944.88477462 24.6806928 941.1484375 25.296875 C899.09393433 32.22862507 899.09393433 32.22862507 857.31640625 40.63671875 C851.77081155 41.85104003 846.20962074 42.92082245 840.625 43.9375 C826.97344218 46.45399037 813.4970698 49.77193131 800 53 C798.90606934 53.26071289 797.81213867 53.52142578 796.68505859 53.79003906 C790.54687016 55.25328398 784.41162858 56.72842356 778.27783203 58.20996094 C774.69523808 59.0734552 771.1113544 59.93146814 767.52734375 60.7890625 C749.20837327 65.17813715 749.20837327 65.17813715 731 70 C729.61593129 70.38037528 728.23181391 70.7605735 726.84765625 71.140625 C716.16513364 74.0831304 705.50730887 77.11265055 694.859375 80.17773438 C692.87543314 80.74825317 690.89102448 81.3171502 688.90625 81.88476562 C685.72801624 82.79422345 682.55137409 83.70907058 679.375 84.625 C678.4041748 84.9019873 677.43334961 85.17897461 676.43310547 85.46435547 C671.83947581 86.79494036 667.32894604 88.21583238 662.8515625 89.8984375 C658.28728726 91.59564045 653.66899756 93.01869792 648.9921875 94.3671875 C639.63083518 97.07324005 630.3705777 100.04813806 621.125 103.125 C620.24392578 103.41802002 619.36285156 103.71104004 618.45507812 104.01293945 C562.57894173 122.66640834 507.84596112 144.72618917 454.91259766 170.58642578 C451.97487329 172.01219478 449.02679969 173.41387565 446.07421875 174.80859375 C422.34145564 186.03689463 398.94105742 197.94631155 376.1796875 211.0390625 C372.06200907 213.40753034 367.90632111 215.69217087 363.7253418 217.9465332 C351.68113661 224.45306072 340.00857904 231.55285622 328.34963989 238.71817017 C324.34567938 241.178636 320.33033713 243.61943026 316.30859375 246.05078125 C301.19515637 255.21828162 286.50970961 264.90617721 272 275 C271.19739746 275.55671387 270.39479492 276.11342773 269.56787109 276.68701172 C248.72351269 291.17145924 228.4754822 306.41940048 208.83789062 322.49853516 C207.19344437 323.84196561 205.54246048 325.17738431 203.890625 326.51171875 C198.56269827 330.82372725 193.40085089 335.26898927 188.33203125 339.8828125 C186.24176111 341.78051169 184.13013885 343.64733415 182 345.5 C156.21101494 368.01252833 156.21101494 368.01252833 132.796875 392.921875 C130.92996715 395.08099452 129.00080593 397.17574838 127.05883789 399.26733398 C122.25008278 404.44945744 117.65550195 409.74216688 113.22265625 415.25390625 C110.98316013 418.02080568 108.68242858 420.72712672 106.375 423.4375 C95.09190717 436.96668284 84.7047188 451.30222628 75 466 C74.46020508 466.81662109 73.92041016 467.63324219 73.36425781 468.47460938 C65.01497149 481.17984034 57.39624858 494.14976466 50.28710938 507.5859375 C49.15654908 509.7063814 48.00199185 511.80958726 46.828125 513.90625 C19.16067625 563.63021878 6.47066718 619.88784574 1 676 C0.67 676 0.34 676 0 676 C0 452.92 0 229.84 0 0 Z " fill="#FEFEFE" transform="translate(0,0)"/>
<path d="M0 0 C-0.91610264 11.36000171 -1.99808903 22.65437508 -3.68505859 33.92700195 C-5.06483999 43.22666137 -6.25134373 52.54907697 -7.4375 61.875 C-7.58356186 63.02281448 -7.58356186 63.02281448 -7.73257446 64.19381714 C-7.92778324 65.72823984 -8.12294226 67.26266887 -8.3180542 68.79710388 C-8.7511066 72.20188572 -9.18478074 75.60658794 -9.618927 79.01123047 C-9.88878455 81.12773312 -10.15834748 83.24427335 -10.42770386 85.36083984 C-12.86527064 104.48908296 -15.42482418 123.59803404 -18.06005859 142.69995117 C-19.16226814 150.69007826 -20.25909364 158.68094555 -21.35546875 166.671875 C-21.46706707 167.48508209 -21.57866539 168.29828918 -21.69364548 169.13613892 C-23.90250602 185.23731673 -26.07051494 201.34383044 -28.22596741 217.45223236 C-31.42378365 241.34860381 -34.66113392 265.23926895 -37.9375 289.125 C-38.09302967 290.25905085 -38.09302967 290.25905085 -38.25170135 291.41601181 C-40.15358732 305.28335487 -42.05847137 319.15028588 -43.96447086 333.01706409 C-45.35247729 343.11538315 -46.73947234 353.21384054 -48.125 363.3125 C-48.27994619 364.44168287 -48.27994619 364.44168287 -48.43802261 365.59367752 C-52.70834776 396.71812317 -56.87867927 427.85548726 -61 459 C-65.21464814 460.16839096 -69.43212854 461.32572694 -73.65258789 462.47290039 C-75.0879887 462.86472733 -76.52257074 463.25956667 -77.95629883 463.6574707 C-80.01696398 464.22880777 -82.08032826 464.78925617 -84.14453125 465.34765625 C-85.38565674 465.68804932 -86.62678223 466.02844238 -87.90551758 466.37915039 C-91 467 -91 467 -94 466 C-95.44775391 464.03588867 -95.44775391 464.03588867 -96.9765625 461.41796875 C-97.84547119 459.94783325 -97.84547119 459.94783325 -98.73193359 458.44799805 C-99.35664551 457.37203369 -99.98135742 456.29606934 -100.625 455.1875 C-101.63425318 453.47684915 -102.64353705 451.7662158 -103.65432739 450.05647278 C-104.36053382 448.86112896 -105.06565255 447.66514194 -105.76974487 446.46855164 C-109.23138096 440.5876387 -112.76703061 434.75295035 -116.3168335 428.92495728 C-117.74565917 426.5788959 -119.1721132 424.23139584 -120.59872437 421.88398743 C-121.67980541 420.10527475 -122.76125848 418.32678871 -123.84277344 416.54833984 C-127.04507194 411.28178711 -130.24309504 406.01263904 -133.44143677 400.74368286 C-134.49714338 399.00470546 -135.55309751 397.26587861 -136.60913086 395.52709961 C-140.24144957 389.54612115 -143.87091198 383.56343227 -147.49609375 377.578125 C-156.69633473 362.3824358 -156.69633473 362.3824358 -166 347.25 C-166.403396 346.59418945 -166.80679199 345.93837891 -167.22241211 345.26269531 C-168.12016784 343.82387336 -169.05523444 342.40840052 -170 341 C-170.33 341 -170.66 341 -171 341 C-171.17539307 341.89267578 -171.35078613 342.78535156 -171.53149414 343.70507812 C-174.6884768 359.73236425 -177.89102029 375.74110578 -181.4375 391.6875 C-184.12065664 403.76132644 -186.60182485 415.86646151 -189 428 C-192.21112503 444.23844152 -195.51657091 460.4569939 -199.25634766 476.58349609 C-199.76750771 478.93187881 -200.20616352 481.29684615 -200.58349609 483.67041016 C-200.78668457 484.83749512 -200.98987305 486.00458008 -201.19921875 487.20703125 C-201.43451294 488.77094604 -201.43451294 488.77094604 -201.67456055 490.36645508 C-203 493 -203 493 -206.55786133 494.70703125 C-208.03078155 495.1639434 -209.5121745 495.59424397 -211 496 C-211.70762985 496.20912521 -212.4152597 496.41825043 -213.14433289 496.63371277 C-215.38047784 497.28046551 -217.62469541 497.88494829 -219.875 498.48046875 C-220.68493408 498.69818436 -221.49486816 498.91589996 -222.3293457 499.14021301 C-224.88525284 499.82635502 -227.44258105 500.50701718 -230 501.1875 C-231.74619113 501.65523555 -233.49228586 502.12333117 -235.23828125 502.59179688 C-239.49108523 503.73202685 -243.74517155 504.86734891 -248 506 C-251.13576152 503.11159728 -253.15369248 500.28901438 -255.1796875 496.546875 C-255.77144775 495.46519043 -256.36320801 494.38350586 -256.97290039 493.26904297 C-257.28244659 492.69619568 -257.5919928 492.12334839 -257.91091919 491.53314209 C-259.56732821 488.46948539 -261.24719851 485.41873502 -262.92578125 482.3671875 C-263.4380854 481.43430405 -263.4380854 481.43430405 -263.96073914 480.48257446 C-267.22607517 474.55329582 -270.62754422 468.70750226 -274.0625 462.875 C-278.80838618 454.80365602 -283.4472645 446.68185627 -288 438.5 C-292.57566573 430.27797099 -297.23582452 422.11425646 -302 414 C-307.41450699 404.775649 -312.68630694 395.47985528 -317.89501953 386.13793945 C-322.98624609 377.00862258 -328.16042475 367.92905085 -333.36035156 358.86132812 C-336.15574926 353.98311773 -338.94370875 349.10065746 -341.73248291 344.21865845 C-343.441155 341.22763672 -345.15028974 338.23687939 -346.859375 335.24609375 C-347.55143448 334.03499474 -348.24349177 332.82389448 -348.93554688 331.61279297 C-349.44831177 330.71545441 -349.44831177 330.71545441 -349.97143555 329.79998779 C-400.99999999 240.50000001 -400.99999999 240.50000001 -401.99996948 238.75004578 C-402.66672911 237.58322151 -403.3334975 236.41640226 -404.00027466 235.24958801 C-405.66559088 232.33537354 -407.33075537 229.42107258 -408.99560547 226.5065918 C-412.01154606 221.22724336 -415.02862341 215.94856056 -418.05130005 210.67306519 C-419.7432784 207.71996984 -421.43437464 204.76637011 -423.125 201.8125 C-423.45755798 201.23149536 -423.79011597 200.65049072 -424.13275146 200.05187988 C-428.84669933 191.81214789 -433.50362302 183.54200023 -438.125 175.25 C-442.6838077 167.07253786 -447.32870965 158.95241094 -452.0625 150.875 C-456.88076447 142.64024717 -461.69168772 134.40177968 -466.4375 126.125 C-467.29903687 124.64362549 -467.29903687 124.64362549 -468.17797852 123.13232422 C-468.69545654 122.22498535 -469.21293457 121.31764648 -469.74609375 120.3828125 C-470.20685303 119.58246582 -470.6676123 118.78211914 -471.14233398 117.95751953 C-471.42536377 117.31153809 -471.70839355 116.66555664 -472 116 C-471 114 -471 114 -468.55290222 113.14533997 C-467.46576431 112.8625267 -466.3786264 112.57971344 -465.25854492 112.28833008 C-464.0302446 111.96492142 -462.80194427 111.64151276 -461.53642273 111.30830383 C-460.18455511 110.96158964 -458.83256736 110.61534353 -457.48046875 110.26953125 C-456.10131106 109.91170966 -454.72226887 109.55344266 -453.34333801 109.19474792 C-450.44860121 108.44383498 -447.5523803 107.69901163 -444.6550293 106.95825195 C-440.94282478 106.0085474 -437.23496408 105.04298587 -433.52810192 104.07266712 C-430.67910722 103.32896434 -427.82785424 102.59424489 -424.97585487 101.86215782 C-423.60798168 101.50978364 -422.24085334 101.1545048 -420.87450218 100.79627419 C-418.9619235 100.29616909 -417.0458407 99.80952349 -415.12963867 99.32348633 C-414.04011398 99.04305984 -412.95058929 98.76263336 -411.82804871 98.47370911 C-409.0241912 98.00405212 -407.56983524 97.82654805 -405 99 C-403.56677246 100.62315369 -403.56677246 100.62315369 -402.24023438 102.74975586 C-401.73641235 103.54257462 -401.23259033 104.33539337 -400.71350098 105.15223694 C-400.17898315 106.01852219 -399.64446533 106.88480743 -399.09375 107.77734375 C-397.9264607 109.62136127 -396.7584714 111.46493583 -395.58984375 113.30810547 C-394.99349121 114.25659363 -394.39713867 115.20508179 -393.78271484 116.18231201 C-391.04341727 120.51193652 -388.22656818 124.78929154 -385.40625 129.06640625 C-384.27676239 130.78433476 -383.14728668 132.50227108 -382.01782227 134.22021484 C-380.84536118 136.00107291 -379.67275003 137.78183219 -378.5 139.5625 C-377.88792694 140.49233704 -377.27585388 141.42217407 -376.64523315 142.38018799 C-366.43620181 157.88130273 -356.08804273 173.28458448 -345.68115234 188.65335083 C-338.81015877 198.80434951 -332.00696036 208.97185429 -325.51953125 219.3737793 C-318.67396901 230.25438738 -311.37561514 240.84043106 -304.16934204 251.48355103 C-291.94242552 269.54517572 -279.91848405 287.73368518 -268 306 C-265.65684627 284.57971937 -263.51914794 263.14658467 -261.5625 241.6875 C-259.97504528 224.28044899 -258.30489006 206.88586173 -256.5 189.5 C-254.68110876 171.96796407 -252.98604244 154.42736533 -251.375 136.875 C-251.21747253 135.15941895 -251.21747253 135.15941895 -251.0567627 133.40917969 C-250.64961153 128.97283274 -250.24277203 124.53645737 -249.83642578 120.10003662 C-249.05292734 111.55330816 -248.25843957 103.00771111 -247.43829346 94.4644165 C-247.25733442 92.57651806 -247.07857194 90.68840946 -246.89990234 88.80029297 C-246.79371582 87.70088379 -246.6875293 86.60147461 -246.578125 85.46875 C-246.48950195 84.54513672 -246.40087891 83.62152344 -246.30957031 82.66992188 C-245.97211151 79.75947281 -245.50360839 76.88594113 -245 74 C-240.69640431 73.13821127 -236.39139707 72.28397472 -232.08496094 71.43652344 C-230.62199103 71.14754971 -229.15941725 70.85656256 -227.69726562 70.56347656 C-225.58826513 70.1411018 -223.47791788 69.72613196 -221.3671875 69.3125 C-220.09987793 69.06113281 -218.83256836 68.80976563 -217.52685547 68.55078125 C-214.27733598 68.04331095 -211.28077155 67.89402622 -208 68 C-202.08927192 81.24979369 -196.48686004 94.60812812 -191.0625 108.0625 C-185.33904698 122.25786282 -179.54215353 136.4207284 -173.6875 150.5625 C-167.15734838 166.3418981 -160.65354166 182.13171423 -154.1875 197.9375 C-153.62861588 199.30275314 -153.62861588 199.30275314 -153.05844116 200.69558716 C-148.65865475 211.44524757 -144.29315928 222.20726147 -140 233 C-130.43715814 198.60601963 -120.94023797 164.1949337 -111.5625 129.75 C-104.70114033 104.54957711 -97.81634746 79.35583975 -90.88319016 54.17506409 C-90.25310233 51.88626923 -89.62335045 49.59738218 -88.99368286 47.30847168 C-88.01602168 43.75487785 -87.03746455 40.20153205 -86.05811501 36.64840317 C-85.52962735 34.73050252 -85.00182671 32.8124126 -84.4740448 30.89431763 C-84.00397758 29.19068558 -84.00397758 29.19068558 -83.52441406 27.45263672 C-83.25244202 26.46576874 -82.98046997 25.47890076 -82.70025635 24.46212769 C-82.17860649 22.62798716 -81.6030083 20.80902489 -81 19 C-78.40789383 18.04455646 -75.94916927 17.30262695 -73.28125 16.62890625 C-72.07958191 16.31113976 -72.07958191 16.31113976 -70.8536377 15.98695374 C-61.1159317 13.44530003 -51.30857503 11.18613014 -41.5 8.9375 C-39.66268049 8.51271537 -37.82544065 8.08758597 -35.98828125 7.66210938 C-30.66128726 6.43065422 -25.33157484 5.2114606 -20 4 C-18.68418945 3.70092743 -18.68418945 3.70092743 -17.34179688 3.39581299 C-14.82226699 2.82473284 -12.30195847 2.25725909 -9.78125 1.69140625 C-8.6429071 1.43374733 -8.6429071 1.43374733 -7.48156738 1.17088318 C-2.23251564 0 -2.23251564 0 0 0 Z " fill="#FEFEFE" transform="translate(608,335)"/>
<path d="M0 0 C0.16096689 55.12659729 -0.07577461 110.24975863 -0.4375 165.375 C-0.44580912 166.64262861 -0.44580912 166.64262861 -0.4542861 167.93586588 C-0.72485328 209.11757757 -1.02270679 250.29811666 -1.59186172 291.47696877 C-2.05196239 324.85839571 -2.30309161 358.24153847 -2.5625 391.625 C-2.57378071 393.07430141 -2.58506204 394.52360281 -2.59634399 395.97290421 C-2.7338334 413.64858063 -2.86845111 431.32427832 -3 449 C-6.65487498 449.79709601 -10.30996315 450.59321028 -13.96508789 451.38916016 C-14.99036842 451.61277725 -16.01564896 451.83639435 -17.0719986 452.06678772 C-24.85041455 453.75990985 -32.64026435 455.38727386 -40.44186401 456.96994019 C-50.03778705 458.91765151 -59.62472295 460.89885184 -69.1875 463.00390625 C-69.92791031 463.16689209 -70.66832062 463.32987793 -71.4311676 463.49780273 C-74.98399854 464.28160752 -78.53549141 465.07107488 -82.08569336 465.86669922 C-83.34518799 466.14658691 -84.60468262 466.42647461 -85.90234375 466.71484375 C-87.56511353 467.08790649 -87.56511353 467.08790649 -89.26147461 467.46850586 C-92 468 -92 468 -95 468 C-95.17422338 436.3360179 -94.71413314 404.68878034 -94.16577756 373.03008461 C-94.07272284 367.63928918 -93.98437948 362.24842426 -93.89716727 356.85753155 C-93.80064167 350.89875808 -93.70064455 344.94004637 -93.59924126 338.98135376 C-93.55733334 336.5003909 -93.51625909 334.01941377 -93.4761219 331.53842163 C-93.21744421 315.67915177 -92.74499105 299.84415345 -92 284 C-92.88617004 284.26623672 -93.77234009 284.53247345 -94.68536377 284.80677795 C-101.6928251 286.90623013 -108.73377154 288.66715718 -115.875 290.25 C-125.20839662 292.32043078 -134.48191501 294.59601372 -143.75 296.9375 C-154.08505933 299.54400944 -164.42934666 302.09041054 -174.8125 304.5 C-175.90336914 304.75515381 -176.99423828 305.01030762 -178.11816406 305.27319336 C-179.11686523 305.50272705 -180.11556641 305.73226074 -181.14453125 305.96875 C-182.01440674 306.16919922 -182.88428223 306.36964844 -183.78051758 306.57617188 C-186 307 -186 307 -189 307 C-188.99247208 307.75779251 -188.98494415 308.51558502 -188.97718811 309.29634094 C-188.770031 333.94302103 -189.47570187 358.52973415 -190.33239746 383.15948486 C-190.64415444 392.14123606 -190.94656755 401.12330237 -191.24609375 410.10546875 C-191.27897429 411.08511345 -191.31185482 412.06475815 -191.34573174 413.07408905 C-191.92071427 430.30323949 -192.33853087 447.53369839 -192.67454529 464.76908875 C-192.93166964 477.85634222 -193.3392669 490.92591946 -194 504 C-236.0049695 515.15803544 -236.0049695 515.15803544 -256.37109375 519.71875 C-262.93134814 521.19097332 -269.44578849 522.83735649 -275.95263672 524.52880859 C-279.04478038 525.32208794 -281.79323377 526 -285 526 C-282.89329988 456.80531044 -280.58692222 387.61899502 -277.93575668 318.4429245 C-276.55698645 282.46542778 -275.27738 246.4854713 -274.06404114 210.50202179 C-272.89904774 175.9592582 -271.72468937 141.41719215 -270.40767288 106.87983704 C-270.31374148 104.40767434 -270.22090869 101.93547268 -270.12838745 99.46325684 C-269.98637717 95.67450928 -269.84130317 91.88589201 -269.69359207 88.09736252 C-269.61685502 86.11572565 -269.54266401 84.13399068 -269.46859741 82.1522522 C-269.18715729 75.07485217 -268.72621058 68.04609147 -268 61 C-254.66173454 57.29108681 -241.19386243 54.1150051 -227.73144531 50.89355469 C-224.16141764 50.03865405 -220.59226461 49.18020954 -217.0234375 48.3203125 C-211.87838386 47.08092389 -206.73202399 45.84713635 -201.58447266 44.61816406 C-199.28858311 44.06902441 -196.99381849 43.51543362 -194.69921875 42.9609375 C-193.54035156 42.68507813 -192.38148438 42.40921875 -191.1875 42.125 C-190.25292969 41.90070313 -189.31835938 41.67640625 -188.35546875 41.4453125 C-186 41 -186 41 -182 41 C-182 101.39 -182 161.78 -182 224 C-172.43 221.69 -162.86 219.38 -153 217 C-139 214 -139 214 -132.125 212.5546875 C-123.11638067 210.62534993 -114.17486564 208.42005983 -105.23828125 206.18359375 C-104.08714844 205.89871094 -102.93601562 205.61382812 -101.75 205.3203125 C-100.73421875 205.06523926 -99.7184375 204.81016602 -98.671875 204.54736328 C-96 204 -96 204 -92 204 C-92.00785522 203.08329025 -92.01571045 202.16658051 -92.02380371 201.22209167 C-92.29469983 165.68865776 -91.45965675 130.18012757 -90.66385365 94.65859497 C-90.47868216 86.38464634 -90.29904493 78.1105799 -90.11972713 69.83650267 C-89.75236063 52.89087002 -89.3785014 35.94538769 -89 19 C-69.81763925 14.58384169 -50.63362739 10.19858368 -31.375 6.125 C-28.70679627 5.55793972 -26.0387529 4.99013083 -23.37075806 4.42208862 C-21.75582304 4.07851563 -20.14074597 3.73560919 -18.52548218 3.39358521 C-17.79825958 3.23937103 -17.07103699 3.08515686 -16.32177734 2.92626953 C-15.61591492 2.77675842 -14.91005249 2.62724731 -14.18280029 2.47320557 C-12.63829904 2.13837576 -11.09620963 1.79232887 -9.55596924 1.43841553 C-8.75713318 1.2549054 -7.95829712 1.07139526 -7.13525391 0.88232422 C-6.41447662 0.71368866 -5.69369934 0.5450531 -4.95108032 0.37130737 C-3 0 -3 0 0 0 Z " fill="#FEFEFE" transform="translate(947,249)"/>
<path d="M0 0 C0.13368233 1.05732834 0.13368233 1.05732834 0.27006531 2.13601685 C1.31537844 10.40198301 2.36216045 18.66776258 3.40977478 26.93343735 C3.68697604 29.12086536 3.96403842 31.30831094 4.24108887 33.49575806 C7.10223156 56.08664341 7.10223156 56.08664341 10.08032227 78.66235352 C10.30396574 80.33734664 10.52711755 82.01240544 10.75 83.6875 C10.91957214 84.95614395 11.08914429 86.2247879 11.26385498 87.53187561 C12.49515236 96.81969337 13.58915102 106.11423765 14.58569717 115.42990112 C16.06468918 129.19371529 17.70990555 142.93055084 19.5078125 156.65625 C19.61461334 157.4718722 19.72141418 158.28749439 19.83145142 159.12783241 C20.5911079 164.91919967 21.35753611 170.70966309 22.125 176.5 C23.00654572 183.1557344 23.88510211 189.81185096 24.7578125 196.46875 C24.91386333 197.65745697 24.91386333 197.65745697 25.07306671 198.87017822 C26.31325988 208.34340278 27.45361951 217.81341379 28.32836914 227.32833862 C28.94792224 233.91559807 29.8700597 240.4447879 30.83374023 246.98953247 C32.32233823 257.10013762 33.59531106 267.23620194 34.875 277.375 C35.13571994 279.43036202 35.39662834 281.48570014 35.65771484 283.54101562 C36.18580388 287.69881961 36.71324805 291.85670456 37.24023438 296.01464844 C38.56632478 306.47010281 39.90752322 316.92363003 41.25219727 327.37670898 C41.4559117 328.9607722 41.65960668 330.54483791 41.86328125 332.12890625 C41.96165787 332.8938591 42.06003448 333.65881195 42.16139221 334.44694519 C42.75588848 339.07681576 43.34031798 343.70783443 43.91796875 348.33984375 C46.13498522 366.00304736 48.61528541 383.62627959 51.125 401.25 C51.30116852 402.49103485 51.47733704 403.7320697 51.65884399 405.01071167 C52.16850717 408.59604412 52.68135598 412.18090574 53.1953125 415.765625 C53.42327263 417.37024345 53.42327263 417.37024345 53.65583801 419.00727844 C54.62096574 425.70211564 55.74200194 432.35396864 57 439 C47.90475717 442.26137124 38.77287867 444.49713717 29.3125 446.375 C27.83703106 446.67303199 26.36160874 446.97129486 24.88623047 447.26977539 C14.15196014 449.42793918 3.39442906 451.46294662 -7.375 453.4375 C-8.08804291 453.56896423 -8.80108582 453.70042847 -9.53573608 453.83587646 C-11.55172159 454.20606701 -13.56859054 454.57090432 -15.5859375 454.93359375 C-16.7311084 455.14040771 -17.8762793 455.34722168 -19.05615234 455.56030273 C-22 456 -22 456 -26 456 C-27.02579834 452.92260499 -27.31053906 450.36761537 -27.57582092 447.13929749 C-27.72933769 445.30380341 -27.72933769 445.30380341 -27.88595581 443.43122864 C-27.99574347 442.07272961 -28.10545148 440.71422414 -28.21508789 439.35571289 C-28.33315243 437.92645767 -28.4515328 436.49722852 -28.57020569 435.06802368 C-28.89188633 431.181443 -29.20876857 427.29448488 -29.52454305 423.4074204 C-29.78898715 420.15746522 -30.05573895 416.90770114 -30.32248396 413.65793413 C-30.95253321 405.98146087 -31.57868825 398.30467673 -32.20239258 390.62768555 C-32.84418172 382.72886966 -33.49221845 374.83058444 -34.1434384 366.93254095 C-34.70327149 360.14028106 -35.25928565 353.34771584 -35.81227487 346.55489534 C-36.14213099 342.50337385 -36.47335853 338.45197717 -36.80821419 334.40086555 C-37.12368929 330.58206625 -37.43434597 326.76290345 -37.74147606 322.94342422 C-37.85427794 321.55023707 -37.96869646 320.1571796 -38.08495331 318.7642765 C-38.24491665 316.84441061 -38.39814105 314.92398694 -38.55116272 313.0035553 C-38.63835603 311.93448472 -38.72554934 310.86541414 -38.81538486 309.76394749 C-39.07282454 304.51524769 -39 299.25500949 -39 294 C-54.18 294.99 -69.36 295.98 -85 297 C-87.1965401 336.02146016 -87.1965401 336.02146016 -89 375.0625 C-89.93266508 397.71200373 -91.20067663 420.3396561 -92.49478149 442.97099304 C-93.04432688 452.64501006 -93.53257078 462.32170496 -94 472 C-106.95638635 475.51122654 -119.91325531 479.02066302 -132.87081909 482.52754211 C-138.22127793 483.97589553 -143.57123817 485.42602849 -148.91976929 486.88148499 C-151.90441563 487.69340985 -154.88978488 488.50266925 -157.875 489.3125 C-158.91060059 489.59552979 -159.94620117 489.87855957 -161.01318359 490.17016602 C-161.93437988 490.41951904 -162.85557617 490.66887207 -163.8046875 490.92578125 C-164.57796387 491.13630127 -165.35124023 491.34682129 -166.14794922 491.5637207 C-168 492 -168 492 -170 492 C-169.48098878 474.2752325 -167.82858027 456.69846747 -166.0458374 439.06671143 C-165.39978329 432.65230492 -164.76953501 426.23630946 -164.1371727 419.82054138 C-163.97514908 418.17709969 -163.81292972 416.53367728 -163.65051651 414.89027405 C-162.07466963 398.93899537 -160.60888655 382.97900453 -159.18028259 367.01395798 C-157.01371411 342.81096747 -154.71827855 318.62304097 -152.34160233 294.43981552 C-149.93126284 269.90678315 -147.64592438 245.36450273 -145.4375 220.8125 C-143.2801162 196.82821703 -141.03834815 172.85642759 -138.63900757 148.89486694 C-137.06409059 133.14716192 -135.56414959 117.39484405 -134.140625 101.6328125 C-134.06179581 100.76066353 -133.98296661 99.88851456 -133.90174866 98.98993683 C-133.12079971 90.34447279 -132.34434164 81.6986252 -131.57785416 73.05186653 C-131.29315419 69.84615226 -131.00597264 66.64066294 -130.71837616 63.43520737 C-130.58610544 61.95355883 -130.45501272 60.47180453 -130.32526398 58.98993301 C-129.47534197 49.28408931 -128.3660627 39.6458783 -127 30 C-96.89726384 22.33941211 -96.89726384 22.33941211 -81.75 19.0625 C-70.3321758 16.58945555 -59.01483287 13.78473034 -47.69204712 10.91506958 C-34.2642724 7.51566233 -20.79624079 4.40827092 -7.24780273 1.52148438 C-0.68960674 0 -0.68960674 0 0 0 Z " fill="#FEFEFE" transform="translate(1163,195)"/>
<path d="M0 0 C0.14594888 10.18784612 -0.30875798 20.32445481 -0.8046875 30.49609375 C-0.88958022 32.26058437 -0.9744699 34.02507514 -1.05935669 35.78956604 C-1.23700675 39.46325966 -1.41734651 43.13681104 -1.59912109 46.81030273 C-1.83121598 51.51283146 -2.05240224 56.21580819 -2.27113152 60.91897488 C-2.44200842 64.55238739 -2.62068767 68.18538599 -2.80151749 71.81831551 C-2.88652577 73.55288896 -2.96863593 75.28760703 -3.0477562 77.02245903 C-3.15884901 79.44181221 -3.28095616 81.86037349 -3.40576172 84.27905273 C-3.43597412 84.9902829 -3.46618652 85.70151306 -3.49731445 86.43429565 C-3.89613897 93.69372932 -3.89613897 93.69372932 -6 97 C-8.87779236 98.32258606 -8.87779236 98.32258606 -12.60522461 99.31176758 C-13.28344772 99.49781555 -13.96167084 99.68386353 -14.66044617 99.87554932 C-16.90288574 100.48525749 -19.15193354 101.06500138 -21.40234375 101.64453125 C-22.96217255 102.06166515 -24.52153996 102.48052788 -26.08045959 102.90104675 C-30.18612749 104.00304361 -34.29814281 105.07929364 -38.4118042 106.15100098 C-41.77011821 107.03056907 -45.12342523 107.92836691 -48.47663021 108.82718372 C-52.47106084 109.89748691 -56.46763052 110.95967308 -60.46484375 112.01953125 C-61.22891981 112.22234018 -61.99299587 112.42514912 -62.78022575 112.63410378 C-64.94083121 113.20549022 -67.10279525 113.77136564 -69.26538086 114.33520508 C-70.4962291 114.65765701 -71.72707733 114.98010895 -72.995224 115.31233215 C-76 116 -76 116 -79 116 C-78.63307696 165.21452416 -78.22219084 214.42318116 -77 263.625 C-76.97809097 264.50699318 -76.95618195 265.38898636 -76.93360901 266.2977066 C-76.88950304 268.0709339 -76.84536206 269.84416032 -76.80118561 271.61738586 C-76.69256271 275.97798659 -76.5843709 280.33859781 -76.4765625 284.69921875 C-76.45557495 285.54527428 -76.4345874 286.3913298 -76.41296387 287.26302338 C-75.9429634 306.31931795 -75.63770665 325.37734971 -75.375 344.4375 C-75.35953125 345.555695 -75.35953125 345.555695 -75.34375 346.6964798 C-75.22282158 355.46423984 -75.10764123 364.23206584 -75 373 C-74.16897766 373.14906044 -74.16897766 373.14906044 -73.32116699 373.3011322 C-65.61224752 374.75699429 -58.08910969 376.79171707 -50.53125 378.87890625 C-49.16034452 379.25503769 -47.78937159 379.6309234 -46.41833496 380.00657654 C-43.56702802 380.78860122 -40.71637518 381.57295196 -37.86621094 382.35913086 C-34.21103539 383.3672502 -30.55451241 384.3703776 -26.8975296 385.37191868 C-24.07645159 386.14493721 -21.25595845 386.92007123 -18.43565369 387.69590569 C-17.08657249 388.06684621 -15.73734014 388.43723747 -14.38795471 388.80706978 C-12.51131862 389.32185064 -10.63552045 389.83968322 -8.75976562 390.35766602 C-7.69294556 390.65141617 -6.62612549 390.94516632 -5.52697754 391.24781799 C-3 392 -3 392 -1 393 C-0.47475635 403.72754219 0.04705424 414.45524553 0.56460571 425.18316174 C0.8050873 430.16572854 1.0467058 435.14823455 1.29101562 440.13061523 C1.52719382 444.9480485 1.760264 449.76562341 1.99127197 454.58330727 C2.07948464 456.41194226 2.16877572 458.24052559 2.25921631 460.06905174 C2.75244233 470.05622487 3.14290136 479.99782649 3 490 C-4.07781394 488.65291883 -11.03567933 487.03212989 -18 485.1875 C-18.90105469 484.95224609 -19.80210937 484.71699219 -20.73046875 484.47460938 C-25.85149332 483.12901602 -30.95846784 481.73742577 -36.05754757 480.3113203 C-45.17854587 477.76158707 -54.31991547 475.29763973 -63.47783279 472.88424683 C-65.94120215 472.23500488 -68.404162 471.58422797 -70.86703491 470.93310547 C-74.40119743 469.99884735 -77.935481 469.06504963 -81.46987915 468.13168335 C-127.63378827 455.93950428 -127.63378827 455.93950428 -149.3671875 450.03125 C-150.06412027 449.84183146 -150.76105305 449.65241291 -151.479105 449.45725441 C-158.55649832 447.53296114 -165.63162582 445.60051692 -172.70483398 443.66088867 C-173.84675201 443.34885498 -174.98867004 443.03682129 -176.16519165 442.71533203 C-178.25889643 442.14312628 -180.35195347 441.56854214 -182.44418335 440.9909668 C-186.94696041 439.76167208 -191.36669166 438.64076125 -196 438 C-196.1469644 418.99411143 -195.92956303 400.00245002 -195.5625 381 C-195.54285187 379.92308899 -195.52320374 378.84617798 -195.50296021 377.7366333 C-195.28197915 365.79774855 -194.97175937 353.90435041 -194 342 C-186.5011355 342.64196665 -179.39894808 344.17703216 -172.08984375 345.94140625 C-170.88179581 346.22853989 -169.67374786 346.51567352 -168.42909241 346.81150818 C-164.59734017 347.72346983 -160.76741759 348.6428673 -156.9375 349.5625 C-154.32903761 350.18534388 -151.72018874 350.80656093 -149.11132812 351.42773438 C-142.73952703 352.94617876 -136.3692088 354.47072071 -130 356 C-130.11247773 338.18740688 -130.23829247 320.37492346 -130.375 302.5625 C-130.38007993 301.89816546 -130.38515986 301.23383093 -130.39039373 300.54936504 C-130.70854238 259.04831817 -131.29141549 217.56251227 -132.33935547 176.07250977 C-132.37230634 174.76103706 -132.37230634 174.76103706 -132.40592289 173.42306995 C-132.50718674 169.404787 -132.61070422 165.38660133 -132.72062683 161.36854553 C-132.97253504 151.91012214 -133.04604698 142.46163588 -133 133 C-134.2375 133.45375 -135.475 133.9075 -136.75 134.375 C-141.5091431 135.97895171 -146.23749792 136.78298582 -151.203125 137.47265625 C-153.99809186 137.90612483 -153.99809186 137.90612483 -156.484375 138.99609375 C-160.23902886 140.49445717 -164.0783842 140.8683406 -168.0625 141.4375 C-170.97792988 141.89926971 -170.97792988 141.89926971 -173.5 143 C-177.24759784 144.49903914 -181.08474966 144.86924995 -185.0625 145.4375 C-188.00149409 145.90174072 -188.00149409 145.90174072 -190.625 147.0625 C-193 148 -193 148 -197 148 C-198.61967222 116.020089 -199.19940567 84.01754363 -199 52 C-189.00475164 48.82352981 -178.9347872 46.04253795 -168.80078125 43.3515625 C-167.11419664 42.90168803 -165.42767496 42.45157755 -163.74121094 42.00125122 C-160.14120604 41.04042451 -156.54081256 40.08107354 -152.94009399 39.1229248 C-147.24804854 37.60822019 -141.55691143 36.09012371 -135.8659668 34.57128906 C-133.91603127 34.05090188 -131.96609535 33.53051615 -130.01615906 33.01013184 C-129.04196203 32.75013901 -128.06776501 32.49014618 -127.06404686 32.22227478 C-124.07558337 31.42483996 -121.08703448 30.62772585 -118.09846497 29.83068848 C-97.72711413 24.39718486 -77.36302681 18.93669044 -57.00020981 13.47130585 C-53.4491053 12.5182891 -49.89789764 11.56565704 -46.34668922 10.61302757 C-43.00937872 9.71772879 -39.67212858 8.82220515 -36.3348999 7.92660141 C-34.80031957 7.51478939 -33.26572346 7.10303617 -31.73110962 6.69134903 C-30.30242236 6.30804897 -28.873773 5.92460761 -27.44516563 5.5410099 C-25.48346003 5.01446513 -23.52147463 4.48896314 -21.55947876 3.96350098 C-19.27512099 3.34515737 -16.9935387 2.71641285 -14.71566772 2.07458496 C-13.74110626 1.80021606 -12.7665448 1.52584717 -11.76245117 1.24316406 C-10.52032112 0.88692963 -10.52032112 0.88692963 -9.25309753 0.52349854 C-6.07379073 -0.21520116 -3.24693423 -0.21646228 0 0 Z " fill="#FDFDFD" transform="translate(1230,691)"/>
<path d="M0 0 C4.23316828 0.48052181 7.55511023 2.12187012 11.3125 4.0625 C12.91544922 4.88427734 12.91544922 4.88427734 14.55078125 5.72265625 C15.35902344 6.14417969 16.16726563 6.56570313 17 7 C17 7.66 17 8.32 17 9 C17.65613281 9.0825 18.31226563 9.165 18.98828125 9.25 C23.0440253 10.25999074 26.48908757 12.08552768 30.1875 14 C31.27321289 14.55300781 31.27321289 14.55300781 32.38085938 15.1171875 C34.25638849 16.07327118 36.12843676 17.03617609 38 18 C38.66 18.33 39.32 18.66 40 19 C40 19.66 40 20.32 40 21 C41.19625 21.350625 42.3925 21.70125 43.625 22.0625 C50.4166576 24.30103034 56.67029095 27.71359345 63 31 C63 31.66 63 32.32 63 33 C63.65484375 33.07089844 64.3096875 33.14179687 64.984375 33.21484375 C69.16739006 34.30394482 72.53333286 36.39610899 76.25 38.5625 C84.9581655 43.5316476 93.8718838 47.86346127 103 52 C103 52.66 103 53.32 103 54 C103.67417969 54.09152344 104.34835937 54.18304687 105.04296875 54.27734375 C108.75097572 55.18352775 111.94828493 56.81283099 115.3125 58.5625 C115.95767578 58.89185547 116.60285156 59.22121094 117.26757812 59.56054688 C118.84785228 60.36824255 120.42432105 61.18337613 122 62 C120.66784621 64.95912458 119.21448299 67.03117303 116.91479492 69.31225586 C116.29042038 69.93647934 115.66604584 70.56070282 115.02275085 71.20384216 C114.34879776 71.86747269 113.67484467 72.53110321 112.98046875 73.21484375 C112.28488358 73.90759903 111.5892984 74.60035431 110.87263489 75.31410217 C108.64891241 77.5266454 106.41834985 79.73214558 104.1875 81.9375 C102.69680632 83.41815752 101.20656674 84.89927236 99.71679688 86.38085938 C96.97180227 89.10953975 94.22421048 91.83554411 91.47338867 94.55834961 C86.32304866 99.61729611 86.32304866 99.61729611 81.3125 104.8125 C80 106 80 106 78 106 C78 106.66 78 107.32 78 108 C73.83742594 107.45296222 70.56953663 106.52960192 66.83203125 104.62890625 C65.38352783 103.89897461 65.38352783 103.89897461 63.90576172 103.15429688 C62.88498535 102.62900391 61.86420898 102.10371094 60.8125 101.5625 C59.74531738 101.02044922 58.67813477 100.47839844 57.57861328 99.91992188 C54.38024129 98.29040937 51.18884391 96.64806938 48 95 C47.1352002 94.55382324 46.27040039 94.10764648 45.37939453 93.64794922 C37.87545896 89.76429338 30.417943 85.8208443 23.07421875 81.640625 C22.07406738 81.07730469 21.07391602 80.51398438 20.04345703 79.93359375 C18.08992321 78.83027112 16.14390418 77.71351114 14.20654297 76.58203125 C13.32498535 76.08574219 12.44342773 75.58945312 11.53515625 75.078125 C10.755354 74.62856445 9.97555176 74.17900391 9.17211914 73.71582031 C7.0127444 72.76273548 7.0127444 72.76273548 4.91699219 73.70703125 C3.10482277 74.92929937 1.44036283 76.17366864 -0.20703125 77.609375 C-0.79419922 78.11726562 -1.38136719 78.62515625 -1.98632812 79.1484375 C-2.58896484 79.67695312 -3.19160156 80.20546875 -3.8125 80.75 C-5.00651042 81.78645833 -6.20052083 82.82291667 -7.39453125 83.859375 C-8.2755249 84.62797852 -8.2755249 84.62797852 -9.17431641 85.41210938 C-12.10175849 87.95825585 -15.05068393 90.47925554 -18 93 C-16.17392002 100.92596415 -9.63756981 106.56758925 -4.23852539 112.36962891 C-0.4391517 116.4691384 3.11125011 120.72788321 6.6171875 125.08203125 C9.37541272 128.45972673 12.21239072 131.76237347 15.0625 135.0625 C18.48113447 139.02226706 21.83573339 143.00558279 25.0625 147.125 C28.46181483 151.43408996 32.12974888 155.4551168 35.86352539 159.47143555 C39.64627019 163.56118951 43.18850836 167.80927961 46.68359375 172.1484375 C49.26496304 175.32617709 51.90737166 178.44644029 54.5625 181.5625 C57.76388126 185.3204046 60.89773485 189.10884835 63.9375 193 C67.66480712 197.72486442 71.7189243 202.1019361 75.87670898 206.44726562 C78.72266861 209.45728041 80.91833719 212.4323502 83 216 C83.66 216.33 84.32 216.66 85 217 C85.75854492 219.54663086 85.75854492 219.54663086 86.48046875 222.96484375 C86.89039063 224.85722778 86.89039063 224.85722778 87.30859375 226.7878418 C87.45151855 227.46358246 87.59444336 228.13932312 87.74169922 228.83554077 C88.49774391 232.400306 89.28426801 235.95824073 90.07421875 239.515625 C90.23433441 240.23715256 90.39445007 240.95868011 90.55941772 241.70207214 C92.26611767 249.31392382 94.29691408 256.82740879 96.37158203 264.34619141 C98.56236879 272.30568301 100.59021 280.29623566 102.5625 288.3125 C104.79911148 297.37427992 107.18172504 306.36832827 109.79663086 315.32788086 C112.50971261 324.65460926 114.91586309 334.05788141 117.34033203 343.46289062 C118.22288916 346.85724062 119.14250664 350.24060674 120.0625 353.625 C121.64626007 359.51501679 123.05215664 365.43621814 124.4375 371.375 C125.90021715 377.61818309 127.45204342 383.80078164 129.3125 389.9375 C131.5907221 397.47033115 133.70376753 405.04581385 135.75790405 412.6423645 C136.12477249 413.99523349 136.49437962 415.34736306 136.86685181 416.69869995 C137.39395929 418.6135004 137.91004007 420.53132561 138.42578125 422.44921875 C138.72911377 423.56643311 139.03244629 424.68364746 139.3449707 425.8347168 C139.99698884 428.98544923 140.12180359 431.79290843 140 435 C119.10696963 443.7107178 98.19698503 452.37261602 77.20141602 460.83349609 C68.8854246 464.18827182 60.58607708 467.57890887 52.30841064 471.02734375 C47.81703519 472.89755621 43.32173738 474.7582432 38.82629395 476.61865234 C36.61690531 477.53617012 34.40944271 478.45834021 32.20397949 479.38525391 C29.10949316 480.68530646 26.00874397 481.9691989 22.90625 483.25 C21.51342804 483.84252563 21.51342804 483.84252563 20.09246826 484.44702148 C19.22986389 484.79966064 18.36725952 485.1522998 17.47851562 485.515625 C16.73073853 485.82790039 15.98296143 486.14017578 15.21252441 486.46191406 C12.47567451 487.12751596 10.68246796 486.79784491 8 486 C6.3671875 484.43359375 6.3671875 484.43359375 4.875 482.4375 C0.62738669 477.26448074 -4.52879654 473.78294639 -10 470 C-11.56939736 468.88464213 -13.13277521 467.76072095 -14.6875 466.625 C-15.33074219 466.16351562 -15.97398437 465.70203125 -16.63671875 465.2265625 C-17.08660156 464.82179688 -17.53648437 464.41703125 -18 464 C-18 463.34 -18 462.68 -18 462 C-18.69480469 461.77828125 -19.38960937 461.5565625 -20.10546875 461.328125 C-23.69288177 459.68207854 -26.38728913 457.34061808 -29.3125 454.75 C-30.47517189 453.74318355 -31.63922666 452.73796174 -32.8046875 451.734375 C-33.63758301 451.01604492 -33.63758301 451.01604492 -34.48730469 450.28320312 C-36.83824839 448.28892293 -39.29831289 446.46756605 -41.78515625 444.6484375 C-48.99300041 439.28386918 -55.99133855 433.6208077 -63 428 C-66.94519999 424.83737247 -70.90381559 421.69240477 -74.875 418.5625 C-75.46297363 418.09851807 -76.05094727 417.63453613 -76.65673828 417.15649414 C-79.59437393 414.84915734 -82.55102114 412.57749306 -85.5625 410.3671875 C-86.1208252 409.95654053 -86.67915039 409.54589355 -87.25439453 409.12280273 C-88.78750722 408.00149178 -90.32716016 406.88913894 -91.8671875 405.77734375 C-92.57101562 405.19082031 -93.27484375 404.60429688 -94 404 C-94 403.34 -94 402.68 -94 402 C-94.66 402 -95.32 402 -96 402 C-95.42710431 396.2987639 -93.26296219 391.68975338 -90.875 386.5625 C-90.46902588 385.67651123 -90.06305176 384.79052246 -89.64477539 383.87768555 C-88.4374007 381.24822323 -87.22013091 378.62356307 -86 376 C-85.37620519 374.65108647 -84.75249765 373.30213258 -84.12890625 371.953125 C-82.73523122 368.94736909 -81.32828251 365.94798573 -79.91650391 362.95068359 C-78.88097703 360.74667194 -77.85248156 358.53944081 -76.82421875 356.33203125 C-76.09124035 354.76297668 -75.35816911 353.19396547 -74.625 351.625 C-74.27880615 350.88032471 -73.9326123 350.13564941 -73.57592773 349.3684082 C-71.11353499 344.11353499 -71.11353499 344.11353499 -70 343 C-66.97357185 342.47708504 -64.84051778 342.51341935 -62.14355469 344.07470703 C-59.99415269 345.67313105 -57.93189459 347.34660733 -55.875 349.0625 C-54.26972889 350.35733025 -52.66290144 351.6502329 -51.0546875 352.94140625 C-49.80896973 353.94905029 -49.80896973 353.94905029 -48.53808594 354.97705078 C-44.43200197 358.24975295 -40.21599986 361.37104665 -36 364.5 C-29.52755974 369.32650183 -23.11029784 374.21415299 -16.75 379.1875 C-9.86347294 384.56992593 -2.93083469 389.88082313 4.09375 395.08203125 C6.81623835 397.09988363 9.49419536 399.16485221 12.15625 401.26171875 C13.49999167 402.29948995 14.84374138 403.33725074 16.1875 404.375 C16.79940186 404.8702417 17.41130371 405.3654834 18.04174805 405.87573242 C19.95915994 407.40322407 19.95915994 407.40322407 23 409 C26.62850568 407.89698808 29.91845997 406.07439478 33.2734375 404.3203125 C34.7584375 403.54494141 34.7584375 403.54494141 36.2734375 402.75390625 C37.29695312 402.21636719 38.32046875 401.67882813 39.375 401.125 C40.39078125 400.59519531 41.4065625 400.06539062 42.453125 399.51953125 C46.71424701 397.2893596 50.95482921 395.05454756 55.1015625 392.6171875 C58 391 58 391 60 391 C57.79484709 380.98601149 55.22212976 371.16921008 52.21020508 361.3671875 C50.67893164 356.35312144 49.29301269 351.34632939 48.0625 346.25 C45.67149008 336.39824542 42.74379837 326.70827224 39.87597656 316.98681641 C38.55953133 312.49813442 37.2786519 307.99956529 36 303.5 C31.01141532 285.99254626 25.92164225 268.51789144 20.55859375 251.12109375 C19.6113063 248.04028621 18.6977972 244.95663323 17.84765625 241.84765625 C16.18925211 235.92668726 15.03966109 231.90573735 10 228 C8.63015802 226.70420353 7.2848951 225.38007251 6 224 C6 223.34 6 222.68 6 222 C5.01 221.67 4.02 221.34 3 221 C1.37890625 218.98828125 1.37890625 218.98828125 -0.4375 216.3125 C-4.17965271 211.00882401 -8.23172552 206.10724361 -12.49243164 201.21435547 C-15.70842592 197.51843041 -18.81881339 193.76675237 -21.875 189.9375 C-24.23266815 187.01501843 -26.47358885 184.43185133 -29.4375 182.125 C-32.20232337 179.83221965 -32.80939942 178.29704776 -34 175 C-34.99 174.67 -35.98 174.34 -37 174 C-38.5859375 172.0234375 -38.5859375 172.0234375 -40.375 169.375 C-44.32623196 163.76891628 -48.67406366 158.64586651 -53.20483398 153.50195312 C-56.39625504 149.87163605 -59.47158844 146.19482084 -62.4375 142.375 C-64.5294368 139.70294627 -66.49660948 137.44073413 -69.1875 135.375 C-72.19524933 132.83512279 -73.75300748 130.47072633 -75.62890625 127.0625 C-77.43177521 124.35049199 -79.68216566 122.283394 -82 120 C-83.52379253 118.20745639 -85.02395594 116.39456173 -86.5 114.5625 C-88.98406103 111.48541605 -91.47623896 108.42901562 -94.0625 105.4375 C-96 103 -96 103 -96 101 C-96.58136719 100.92394531 -97.16273438 100.84789062 -97.76171875 100.76953125 C-100.7668696 99.73634675 -101.87536198 98.17927122 -103.8125 95.6875 C-104.43769531 94.90761719 -105.06289063 94.12773438 -105.70703125 93.32421875 C-107 91 -107 91 -106.76171875 88.83203125 C-106.22198414 87.53390031 -105.6287221 86.2574442 -105 85 C-104.34 85 -103.68 85 -103 85 C-103 84.34 -103 83.68 -103 83 C-101.59814453 81.70654297 -101.59814453 81.70654297 -99.6328125 80.2421875 C-98.91714111 79.70319824 -98.20146973 79.16420898 -97.46411133 78.60888672 C-96.69220459 78.0367041 -95.92029785 77.46452148 -95.125 76.875 C-93.5475657 75.68831226 -91.97073917 74.50081619 -90.39453125 73.3125 C-89.63092285 72.73886719 -88.86731445 72.16523437 -88.08056641 71.57421875 C-84.83357051 69.11744457 -81.66757748 66.56541729 -78.5 64.0078125 C-75.45673235 61.56368817 -72.38534983 59.15674891 -69.3125 56.75 C-64.35183181 52.86185385 -59.41676863 48.94349862 -54.5 45 C-49.45598542 40.95543293 -44.39595511 36.93240934 -39.3125 32.9375 C-38.73628906 32.48439453 -38.16007813 32.03128906 -37.56640625 31.56445312 C-36.04718028 30.37258418 -34.52376776 29.18605688 -33 28 C-32.25105469 27.40316406 -31.50210938 26.80632813 -30.73046875 26.19140625 C-29 25 -29 25 -27 25 C-27 24.34 -27 23.68 -27 23 C-25.05460677 21.35528579 -23.10699293 19.8251542 -21.0625 18.3125 C-19.86821868 17.41442264 -18.6742096 16.51598314 -17.48046875 15.6171875 C-16.88927246 15.1747168 -16.29807617 14.73224609 -15.68896484 14.27636719 C-12.68078624 12.00305731 -9.74609647 9.63602075 -6.8046875 7.27734375 C-5 6 -5 6 -2 5 C-1.33820153 3.01954441 -1.33820153 3.01954441 -1 1 C-0.67 0.67 -0.34 0.34 0 0 Z " fill="#FCFCFC" transform="translate(838,782)"/>
<path d="M0 0 C0.14594888 10.18784612 -0.30875798 20.32445481 -0.8046875 30.49609375 C-0.88958022 32.26058437 -0.9744699 34.02507514 -1.05935669 35.78956604 C-1.23700675 39.46325966 -1.41734651 43.13681104 -1.59912109 46.81030273 C-1.83121598 51.51283146 -2.05240224 56.21580819 -2.27113152 60.91897488 C-2.44200842 64.55238739 -2.62068767 68.18538599 -2.80151749 71.81831551 C-2.88652577 73.55288896 -2.96863593 75.28760703 -3.0477562 77.02245903 C-3.15884901 79.44181221 -3.28095616 81.86037349 -3.40576172 84.27905273 C-3.43597412 84.9902829 -3.46618652 85.70151306 -3.49731445 86.43429565 C-3.89613897 93.69372932 -3.89613897 93.69372932 -6 97 C-8.87779236 98.32258606 -8.87779236 98.32258606 -12.60522461 99.31176758 C-13.28344772 99.49781555 -13.96167084 99.68386353 -14.66044617 99.87554932 C-16.90288574 100.48525749 -19.15193354 101.06500138 -21.40234375 101.64453125 C-22.96217255 102.06166515 -24.52153996 102.48052788 -26.08045959 102.90104675 C-30.18612749 104.00304361 -34.29814281 105.07929364 -38.4118042 106.15100098 C-41.77011821 107.03056907 -45.12342523 107.92836691 -48.47663021 108.82718372 C-52.47106084 109.89748691 -56.46763052 110.95967308 -60.46484375 112.01953125 C-61.22891981 112.22234018 -61.99299587 112.42514912 -62.78022575 112.63410378 C-64.94083121 113.20549022 -67.10279525 113.77136564 -69.26538086 114.33520508 C-71.11165321 114.81888298 -71.11165321 114.81888298 -72.995224 115.31233215 C-76 116 -76 116 -79 116 C-78.63307696 165.21452416 -78.22219084 214.42318116 -77 263.625 C-76.97809097 264.50699318 -76.95618195 265.38898636 -76.93360901 266.2977066 C-76.88950304 268.0709339 -76.84536206 269.84416032 -76.80118561 271.61738586 C-76.69256271 275.97798659 -76.5843709 280.33859781 -76.4765625 284.69921875 C-76.45557495 285.54527428 -76.4345874 286.3913298 -76.41296387 287.26302338 C-75.9429634 306.31931795 -75.63770665 325.37734971 -75.375 344.4375 C-75.35953125 345.555695 -75.35953125 345.555695 -75.34375 346.6964798 C-75.22282158 355.46423984 -75.10764123 364.23206584 -75 373 C-74.16897766 373.14906044 -74.16897766 373.14906044 -73.32116699 373.3011322 C-65.61224752 374.75699429 -58.08910969 376.79171707 -50.53125 378.87890625 C-49.16034452 379.25503769 -47.78937159 379.6309234 -46.41833496 380.00657654 C-43.56702802 380.78860122 -40.71637518 381.57295196 -37.86621094 382.35913086 C-34.21103539 383.3672502 -30.55451241 384.3703776 -26.8975296 385.37191868 C-24.07645159 386.14493721 -21.25595845 386.92007123 -18.43565369 387.69590569 C-17.08657249 388.06684621 -15.73734014 388.43723747 -14.38795471 388.80706978 C-12.51131862 389.32185064 -10.63552045 389.83968322 -8.75976562 390.35766602 C-7.69294556 390.65141617 -6.62612549 390.94516632 -5.52697754 391.24781799 C-3 392 -3 392 -1 393 C-0.47475635 403.72754219 0.04705424 414.45524553 0.56460571 425.18316174 C0.8050873 430.16572854 1.0467058 435.14823455 1.29101562 440.13061523 C1.52719382 444.9480485 1.760264 449.76562341 1.99127197 454.58330727 C2.07948464 456.41194226 2.16877572 458.24052559 2.25921631 460.06905174 C2.75244233 470.05622487 3.14290136 479.99782649 3 490 C-4.07781394 488.65291883 -11.03567933 487.03212989 -18 485.1875 C-18.90105469 484.95224609 -19.80210937 484.71699219 -20.73046875 484.47460938 C-25.85149332 483.12901602 -30.95846784 481.73742577 -36.05754757 480.3113203 C-45.17854587 477.76158707 -54.31991547 475.29763973 -63.47783279 472.88424683 C-65.94120215 472.23500488 -68.404162 471.58422797 -70.86703491 470.93310547 C-74.40119743 469.99884735 -77.935481 469.06504963 -81.46987915 468.13168335 C-127.63378827 455.93950428 -127.63378827 455.93950428 -149.3671875 450.03125 C-150.06412027 449.84183146 -150.76105305 449.65241291 -151.479105 449.45725441 C-158.55649832 447.53296114 -165.63162582 445.60051692 -172.70483398 443.66088867 C-173.84675201 443.34885498 -174.98867004 443.03682129 -176.16519165 442.71533203 C-178.25889643 442.14312628 -180.35195347 441.56854214 -182.44418335 440.9909668 C-186.94696041 439.76167208 -191.36669166 438.64076125 -196 438 C-196.1469644 418.99411143 -195.92956303 400.00245002 -195.5625 381 C-195.54285187 379.92308899 -195.52320374 378.84617798 -195.50296021 377.7366333 C-195.28197915 365.79774855 -194.97175937 353.90435041 -194 342 C-186.5011355 342.64196665 -179.39894808 344.17703216 -172.08984375 345.94140625 C-170.88179581 346.22853989 -169.67374786 346.51567352 -168.42909241 346.81150818 C-164.59734017 347.72346983 -160.76741759 348.6428673 -156.9375 349.5625 C-154.32903761 350.18534388 -151.72018874 350.80656093 -149.11132812 351.42773438 C-142.73952703 352.94617876 -136.3692088 354.47072071 -130 356 C-130.11247773 338.18740688 -130.23829247 320.37492346 -130.375 302.5625 C-130.38007993 301.89816546 -130.38515986 301.23383093 -130.39039373 300.54936504 C-130.70854238 259.04831817 -131.29141549 217.56251227 -132.33935547 176.07250977 C-132.37230634 174.76103706 -132.37230634 174.76103706 -132.40592289 173.42306995 C-132.50718674 169.404787 -132.61070422 165.38660133 -132.72062683 161.36854553 C-132.97253504 151.91012214 -133.04604698 142.46163588 -133 133 C-134.2375 133.45375 -135.475 133.9075 -136.75 134.375 C-141.5091431 135.97895171 -146.23749792 136.78298582 -151.203125 137.47265625 C-153.99809186 137.90612483 -153.99809186 137.90612483 -156.484375 138.99609375 C-160.23902886 140.49445717 -164.0783842 140.8683406 -168.0625 141.4375 C-170.93586554 141.98771893 -173.2966423 142.90932036 -176 144 C-177.92715801 144.40669679 -179.86642243 144.75898332 -181.8125 145.0625 C-182.78832031 145.21847656 -183.76414062 145.37445312 -184.76953125 145.53515625 C-188.50624416 146.07284529 -192.25395285 146.53174411 -196 147 C-196 115.32 -196 83.64 -196 51 C-183.82082767 47.52023648 -171.66599079 44.0526082 -159.42578125 40.8125 C-157.99776747 40.43284277 -156.56980606 40.05298852 -155.14189148 39.67295837 C-152.10796739 38.86581821 -149.07376003 38.05975612 -146.03930664 37.25460815 C-138.67215665 35.29967996 -131.30667417 33.33848298 -123.94109726 31.37763786 C-122.21682324 30.91862475 -120.49253164 30.45967769 -118.76822281 30.00079536 C-98.41155544 24.58320011 -78.06492042 19.12830782 -57.7198143 13.66748047 C-55.01194455 12.94070584 -52.3040292 12.21410138 -49.59609985 11.48754883 C-45.32007812 10.34024502 -41.04413217 9.19265926 -36.76825905 8.04480171 C-35.20083869 7.62403586 -33.63340427 7.20332236 -32.06595421 6.78266716 C-30.6014258 6.38959461 -29.13693579 5.99637899 -27.67248821 5.60300541 C-26.30586954 5.23604083 -24.93911975 4.8695641 -23.57222462 4.50363064 C-20.60690222 3.70837821 -17.64628141 2.90035761 -14.69116211 2.06790161 C-13.71671143 1.79356293 -12.74226074 1.51922424 -11.73828125 1.23657227 C-10.91368408 1.00003433 -10.08908691 0.7634964 -9.23950195 0.51979065 C-6.0662659 -0.21672062 -3.24059667 -0.21603978 0 0 Z " fill="#FDFDFD" transform="translate(715,808)"/>
<path d="M0 0 C214.17 0 428.34 0 649 0 C649 131.34 649 262.68 649 398 C648.67 398 648.34 398 648 398 C647.93530518 397.13761719 647.87061035 396.27523438 647.80395508 395.38671875 C645.0592511 359.68907523 640.35751937 324.25767047 629.60449219 289.97265625 C628.96810804 287.89592609 628.37418079 285.81047722 627.7890625 283.71875 C616.61210367 243.89887584 594.68024931 207.93950694 566.578125 177.82421875 C564.78616135 175.86120403 563.08297431 173.90609086 561.40625 171.8515625 C559.44091726 169.52251559 557.58419145 167.61769678 555.25 165.6875 C552.23913492 163.12685774 549.44259108 160.45894878 546.6875 157.625 C541.7750544 152.66225632 536.47078562 148.32955264 531 144 C529.92801302 143.13718121 528.8564103 142.27388485 527.78515625 141.41015625 C483.02401629 105.52973048 431.43612385 80.16162752 378 60 C377.27280762 59.72460388 376.54561523 59.44920776 375.79638672 59.16546631 C325.77095583 40.24344031 274.45627333 29.61992688 221.81445312 20.69848633 C216.94349265 19.87065789 212.08705851 19.03499824 207.25390625 18.0078125 C199.73447088 16.47532921 192.10371255 15.57073449 184.5 14.5625 C183.26831589 14.39817474 183.26831589 14.39817474 182.01174927 14.23052979 C159.71113887 11.25834064 137.4334608 8.75987463 115.00366211 7.00146484 C114.25235519 6.9418457 113.50104828 6.88222656 112.72697449 6.82080078 C110.67591331 6.65863954 108.62458554 6.49986045 106.57324219 6.34130859 C103 6 103 6 100.16035461 5.50964355 C94.58023047 4.60978431 88.94526285 4.36771897 83.30859375 4.0078125 C82.29907559 3.9428124 82.29907559 3.9428124 81.26916313 3.87649918 C65.28323484 2.85876493 49.28696474 2.36811037 33.27630615 1.93554688 C29.49984082 1.83226178 25.72356516 1.72243221 21.94726562 1.61328125 C14.631674 1.40273109 7.31591695 1.19896347 0 1 C0 0.67 0 0.34 0 0 Z " fill="#FEFEFE" transform="translate(1271,0)"/>
<path d="M0 0 C1.64316193 -0.00855011 1.64316193 -0.00855011 3.31951904 -0.01727295 C5.63585456 -0.02668911 7.95220326 -0.03324342 10.26855469 -0.03710938 C13.74439211 -0.04672974 17.21961567 -0.0777508 20.6953125 -0.109375 C53.21369892 -0.26389804 53.21369892 -0.26389804 65.546875 5.203125 C67.49693524 5.73447657 69.45606655 6.23337337 71.421875 6.703125 C76.86381342 8.02846794 82.23091886 9.43113962 87.546875 11.203125 C87.546875 11.863125 87.546875 12.523125 87.546875 13.203125 C88.57296875 13.29722656 89.5990625 13.39132812 90.65625 13.48828125 C103.28336271 15.80832304 116.07510059 27.84345192 123.21484375 38.0078125 C125.43842869 41.67248915 127.32727202 45.4807151 129.171875 49.34765625 C129.95514995 50.97428689 130.7694079 52.58869416 131.671875 54.15234375 C141.83836663 71.82456552 141.40415801 98.26286565 136.609375 117.390625 C135.70995128 120.70445919 134.6326918 123.94567459 133.546875 127.203125 C132.886875 127.203125 132.226875 127.203125 131.546875 127.203125 C131.47339844 128.16025391 131.47339844 128.16025391 131.3984375 129.13671875 C131.32367187 129.96300781 131.24890625 130.78929687 131.171875 131.640625 C131.10226562 132.46433594 131.03265625 133.28804687 130.9609375 134.13671875 C130.82429688 134.81863281 130.68765625 135.50054688 130.546875 136.203125 C129.886875 136.533125 129.226875 136.863125 128.546875 137.203125 C128.175625 138.440625 127.804375 139.678125 127.421875 140.953125 C123.43187142 153.51865866 113.64834608 165.77895739 105.3125 175.921875 C103.37632638 178.16380537 103.37632638 178.16380537 102.546875 181.203125 C100.83984375 182.8515625 100.83984375 182.8515625 98.734375 184.578125 C95.58655563 187.23040214 93.09770924 189.9655277 90.546875 193.203125 C89.886875 193.203125 89.226875 193.203125 88.546875 193.203125 C88.29421875 193.79480469 88.0415625 194.38648438 87.78125 194.99609375 C86.40138602 197.46325561 84.98326393 198.74024329 82.796875 200.515625 C78.93260604 203.78485254 75.72511009 207.27819612 72.546875 211.203125 C71.886875 211.945625 71.226875 212.688125 70.546875 213.453125 C65.70368744 220.1125079 62.36680026 227.01340639 60.2578125 234.953125 C59.41569305 237.61829425 57.99005505 239.7420148 56.51953125 242.1015625 C54.67639231 246.08392696 54.10665652 250.44924862 53.2734375 254.734375 C52.3688467 259.05306654 51.04743874 263.05871086 49.546875 267.203125 C48.886875 267.203125 48.226875 267.203125 47.546875 267.203125 C47.423125 268.440625 47.299375 269.678125 47.171875 270.953125 C46.53474903 276.74266099 45.54659144 282.46688796 44.546875 288.203125 C43.886875 288.203125 43.226875 288.203125 42.546875 288.203125 C42.52109375 288.82574219 42.4953125 289.44835937 42.46875 290.08984375 C42.00513866 297.64460122 40.69913552 304.87128112 39.20239258 312.27050781 C37.36790836 321.59628098 36.16137484 330.99507935 35.0300293 340.42944336 C34.87961182 341.61159424 34.72919434 342.79374512 34.57421875 344.01171875 C34.38460571 345.58651001 34.38460571 345.58651001 34.19116211 347.19311523 C33.46350056 350.59263747 32.31275518 353.21425071 30.546875 356.203125 C28.234375 357.19140625 28.234375 357.19140625 25.546875 357.515625 C24.07734375 357.71091797 24.07734375 357.71091797 22.578125 357.91015625 C18.86317107 358.26920463 15.14875998 358.61539334 11.42822266 358.91162109 C8.80866372 359.17664002 6.30670969 359.59154534 3.7265625 360.10546875 C-3.03598812 361.36533808 -9.84082566 362.19570715 -16.66796875 363.00805664 C-18.81829076 363.2644524 -20.96774455 363.52736305 -23.1171875 363.79101562 C-31.55068772 364.81300522 -39.97428053 365.63780762 -48.453125 366.203125 C-48.52865016 359.91246005 -48.5823587 353.62207272 -48.61791992 347.33105469 C-48.63278204 345.20177603 -48.6530775 343.07252666 -48.67944336 340.94335938 C-49.11358277 304.91830067 -49.11358277 304.91830067 -43.453125 292.203125 C-43.12878001 290.00201457 -42.86395254 287.79176716 -42.640625 285.578125 C-41.50027163 276.20497658 -39.01170029 267.27532517 -36.453125 258.203125 C-35.793125 258.203125 -35.133125 258.203125 -34.453125 258.203125 C-34.43894531 257.63207031 -34.42476562 257.06101562 -34.41015625 256.47265625 C-33.95517642 248.73799908 -31.46171429 242.28816706 -28.453125 235.203125 C-28.15921875 234.49800781 -27.8653125 233.79289063 -27.5625 233.06640625 C-26.87483702 231.43869334 -26.16476877 229.82049721 -25.453125 228.203125 C-24.88937108 226.8911631 -24.32686454 225.57866448 -23.765625 224.265625 C-23.3325 223.255 -22.899375 222.244375 -22.453125 221.203125 C-21.793125 221.203125 -21.133125 221.203125 -20.453125 221.203125 C-20.35 220.460625 -20.246875 219.718125 -20.140625 218.953125 C-19.38862224 215.94511394 -18.31702444 214.64053196 -16.453125 212.203125 C-16.06125 211.213125 -15.669375 210.223125 -15.265625 209.203125 C-11.01552995 198.98988638 -3.44460814 190.64009074 3.765625 182.4296875 C6.04406986 179.82291446 8.14610911 177.13837867 10.171875 174.328125 C10.955625 173.296875 11.739375 172.265625 12.546875 171.203125 C13.206875 171.203125 13.866875 171.203125 14.546875 171.203125 C14.78148437 170.67589844 15.01609375 170.14867187 15.2578125 169.60546875 C16.95016208 166.45154453 19.05631495 163.64230948 21.171875 160.765625 C25.45815504 154.88215813 29.29103065 148.84328395 32.953125 142.5546875 C33.4790625 141.77867187 34.005 141.00265625 34.546875 140.203125 C35.206875 140.203125 35.866875 140.203125 36.546875 140.203125 C36.8871875 138.8109375 36.8871875 138.8109375 37.234375 137.390625 C39.06884196 130.93068064 42.19490244 124.85699707 45.234375 118.890625 C48.93972243 108.48036318 50.96783495 93.27674494 47.70703125 82.40234375 C44.22222707 75.42100205 38.57494276 71.21721827 31.3671875 68.56640625 C26.58361095 67.04827692 22.16776352 66.70210099 17.171875 66.765625 C16.31045898 66.77392334 15.44904297 66.78222168 14.56152344 66.79077148 C-3.81401816 67.26138096 -23.05620665 72.02848639 -36.53515625 85.08984375 C-38.48832635 87.1626738 -38.48832635 87.1626738 -40.08984375 89.47265625 C-40.53972656 90.04371094 -40.98960938 90.61476563 -41.453125 91.203125 C-42.113125 91.203125 -42.773125 91.203125 -43.453125 91.203125 C-43.824375 92.440625 -43.824375 92.440625 -44.203125 93.703125 C-45.453125 97.203125 -45.453125 97.203125 -47.328125 100.703125 C-52.2367592 110.37495238 -54.04022967 121.42627936 -55.97070312 132.01074219 C-58.73766951 146.78966781 -58.73766951 146.78966781 -63.265625 152.265625 C-63.78898437 152.91273438 -64.31234375 153.55984375 -64.8515625 154.2265625 C-65.38007812 154.87882813 -65.90859375 155.53109375 -66.453125 156.203125 C-67.43332896 157.59823011 -68.41250504 158.994058 -69.390625 160.390625 C-73.07785566 165.31661031 -77.76692041 168.79208891 -83.453125 171.203125 C-92.10106009 172.21877195 -100.26185166 171.16923845 -107.328125 165.953125 C-113.68442441 160.52482534 -122.94459075 151.70920551 -124.453125 143.203125 C-126.27689921 116.74707892 -121.91518843 91.51719421 -111.453125 67.203125 C-110.793125 67.203125 -110.133125 67.203125 -109.453125 67.203125 C-109.34097656 66.47480469 -109.22882813 65.74648438 -109.11328125 64.99609375 C-104.32743985 44.74830321 -80.87537903 27.86319042 -64.359375 17.20703125 C-57.35924454 12.92405669 -50.1616731 9.96348042 -42.453125 7.203125 C-41.16123411 6.66199334 -39.86953426 6.12040508 -38.578125 5.578125 C-26.4052954 1.01978881 -12.87407085 0.05294461 0 0 Z " fill="#FCFCFC" transform="translate(1630.453125,584.796875)"/>
<path d="M0 0 C0.15584511 10.90815246 -0.33630577 21.75322074 -0.875 32.64453125 C-0.96495279 34.50923882 -1.05462899 36.37395975 -1.14404297 38.23869324 C-1.37802981 43.10321452 -1.61572824 47.9675473 -1.85424805 52.83184814 C-2.09781919 57.81291884 -2.33781344 62.7941618 -2.578125 67.77539062 C-3.04861852 77.51709718 -3.52304039 87.25860803 -4 97 C-9.21069495 98.47222648 -14.42158203 99.94377054 -19.63262939 101.41474915 C-21.39610689 101.91264014 -23.15953657 102.41070054 -24.9229126 102.90895081 C-74.79545724 117 -74.79545724 117 -79 117 C-78.98985367 118.10610123 -78.97970734 119.21220245 -78.96925354 120.3518219 C-78.69444554 154.25319685 -79.20275034 188.1328812 -79.83984375 222.02734375 C-79.8611084 223.16081883 -79.88237306 224.29429391 -79.90428209 225.46211672 C-80.19409145 240.87702992 -80.49377514 256.29174604 -80.79595947 271.7064209 C-81.19088984 291.86142345 -81.57735917 312.01658937 -81.96094561 332.17181063 C-82.02711821 335.64052123 -82.09374705 339.10922282 -82.16047287 342.57792282 C-82.61362084 366.18027193 -83.03658244 389.78210006 -83.31689453 413.38720703 C-83.32826214 414.33891678 -83.33962976 415.29062654 -83.35134184 416.27117598 C-83.45672438 425.15679675 -83.5560772 434.0424392 -83.63851881 442.9283042 C-83.668136 446.05700557 -83.70098277 449.18566839 -83.73434901 452.31433177 C-83.75526883 454.4069828 -83.77120421 456.49962948 -83.78687477 458.59232521 C-83.85690606 465.13843981 -84.12448622 471.5104391 -85 478 C-86.02770508 478.2266333 -87.05541016 478.4532666 -88.11425781 478.68676758 C-91.98377107 479.54055515 -95.85279208 480.39655606 -99.72167969 481.25317383 C-101.38561191 481.62127625 -103.04967119 481.98880484 -104.71386719 482.35571289 C-107.12730342 482.88791769 -109.5403317 483.42191956 -111.953125 483.95703125 C-112.73828491 484.13090363 -113.52344482 484.304776 -114.33239746 484.48391724 C-119.77049131 485.69834672 -125.16774301 487.031084 -130.54589844 488.4909668 C-133.10098863 489.0209472 -135.39845771 489.03527073 -138 489 C-137.89012785 479.6166932 -137.77713705 470.23342971 -137.66066074 460.85020256 C-137.60660364 456.48836651 -137.55343795 452.12652429 -137.50268555 447.76464844 C-137.29322851 429.82114858 -137.03361181 411.88312658 -136.52734375 393.9453125 C-135.85156453 369.92730718 -135.4578035 345.90446165 -135.06371307 321.8804245 C-134.99929661 317.95716012 -134.93413705 314.0339085 -134.86895752 310.11065674 C-133.89767214 251.4099279 -133.39320672 192.70728161 -133 134 C-134.04981552 134.25659897 -135.09963104 134.51319794 -136.18125916 134.77757263 C-140.14158181 135.74523147 -144.10228516 136.71132449 -148.06309509 137.67698669 C-149.76508044 138.09215963 -151.46696742 138.50773606 -153.16874695 138.92375183 C-190.30146284 148 -190.30146284 148 -197 148 C-198.35583297 116.31912066 -199.34625387 84.71152756 -199 53 C-190.52410928 50.01313186 -181.87066117 47.75211339 -173.19140625 45.44921875 C-171.4994633 44.99803508 -169.80759095 44.54658661 -168.11578369 44.09489441 C-164.49228922 43.12799435 -160.86835232 42.16277757 -157.24404907 41.19891357 C-151.50987392 39.67390145 -145.77668113 38.14522096 -140.04370117 36.61572266 C-138.08253514 36.09252798 -136.12136876 35.56933463 -134.16020203 35.04614258 C-133.18046606 34.78476501 -132.20073009 34.52338745 -131.19130516 34.25408936 C-128.18272924 33.45159095 -125.17405518 32.6494614 -122.1653595 31.84741211 C-108.3517158 28.16450583 -94.54168616 24.46829276 -80.734375 20.76171875 C-79.8024124 20.51154432 -78.87044979 20.2613699 -77.9102459 20.00361443 C-69.79810733 17.82585425 -61.68625865 15.64701525 -53.57449341 13.46786499 C-44.97683632 11.15831123 -36.37885301 8.85000043 -27.77915478 6.5480566 C-23.72080151 5.46163653 -19.66362712 4.37091853 -15.60693359 3.27832031 C-13.86693765 2.81286808 -12.12687425 2.34766788 -10.38671875 1.8828125 C-9.64589554 1.68195038 -8.90507233 1.48108826 -8.14179993 1.2741394 C-5.3266116 0.52660804 -2.92926801 0 0 0 Z " fill="#FDFDFD" transform="translate(1447,636)"/>
<path d="M0 0 C-1.31415554 32.33414218 -2.64691934 64.6674632 -4 97 C-22.51661667 102.25221709 -41.03491891 107.50032474 -59.5954895 112.5954895 C-61.02852937 112.98925628 -62.46121048 113.38433111 -63.89352417 113.7807312 C-65.88111251 114.33031263 -67.87000142 114.87489055 -69.859375 115.41796875 C-70.97795898 115.72500732 -72.09654297 116.0320459 -73.24902344 116.34838867 C-76 117 -76 117 -79 117 C-78.99476318 117.97678711 -78.98952637 118.95357422 -78.98413086 119.95996094 C-78.70223524 178.91635278 -80.13676705 237.87583288 -81.20202446 296.81941223 C-81.79135697 329.18038509 -81.79135697 329.18038509 -82.28125 361.54296875 C-82.29573779 362.61382658 -82.29573779 362.61382658 -82.31051826 363.7063179 C-82.3566266 367.11882421 -82.40235706 370.53133547 -82.44802856 373.94384766 C-82.90520142 407.97490408 -83.89875677 441.98457581 -85 476 C-86.02770508 476.2266333 -87.05541016 476.4532666 -88.11425781 476.68676758 C-91.98377107 477.54055515 -95.85279208 478.39655606 -99.72167969 479.25317383 C-101.38561191 479.62127625 -103.04967119 479.98880484 -104.71386719 480.35571289 C-107.12730342 480.88791769 -109.5403317 481.42191956 -111.953125 481.95703125 C-112.73828491 482.13090363 -113.52344482 482.304776 -114.33239746 482.48391724 C-119.77049131 483.69834672 -125.16774301 485.031084 -130.54589844 486.4909668 C-133.10098863 487.0209472 -135.39845771 487.03527073 -138 487 C-137.97819089 485.76655979 -137.97819089 485.76655979 -137.9559412 484.5082016 C-137.5959966 464.14850919 -137.23680029 443.78880369 -136.87835789 423.42908478 C-136.70497497 413.58178609 -136.53136696 403.73449149 -136.35717773 393.88720703 C-135.91259904 368.74814693 -135.47242322 343.60901519 -135.04227304 318.46970367 C-135.0014773 316.08630767 -134.96058792 313.70291328 -134.91968918 311.31951904 C-134.24333905 271.84902374 -133.77053225 232.38014638 -133.46777344 192.90515137 C-133.4210451 186.87738487 -133.37196662 180.84963787 -133.32291877 174.82188988 C-133.21225545 161.21461651 -133.10486352 147.60731922 -133 134 C-133.95206329 134.22401489 -134.90412659 134.44802979 -135.88504028 134.67883301 C-192.5 148 -192.5 148 -197 148 C-198.26029979 116.32584986 -199.38942651 84.70231357 -199 53 C-191.01877277 50.20843884 -182.89945933 48.0185599 -174.734375 45.84375 C-173.18404475 45.42863482 -171.63377914 45.01327815 -170.08357239 44.59770203 C-165.85786084 43.46562291 -161.63124405 42.33695762 -157.40446854 41.20885849 C-152.93047004 40.01410641 -148.45735456 38.8160572 -143.98413086 37.6184082 C-133.07589155 34.69862512 -122.16629028 31.78394889 -111.25652313 28.86988068 C-105.60145091 27.35930088 -99.94648121 25.84833741 -94.29150391 24.33740234 C-93.13417063 24.02818659 -91.97683735 23.71897083 -90.78443336 23.4003849 C-84.92910045 21.8359487 -79.07379468 20.27141101 -73.21853638 18.70669556 C-70.90448056 18.0883157 -68.59042417 17.469938 -66.27636719 16.8515625 C-65.13866064 16.54753195 -64.00095409 16.2435014 -62.82877159 15.9302578 C-56.00093279 14.105797 -49.17276851 12.28256028 -42.34434223 10.46029949 C-38.0716066 9.31991676 -33.79906191 8.17881979 -29.52655602 7.03757668 C-27.52622907 6.50344938 -25.52581453 5.96965001 -23.52530861 5.43619347 C-20.78691192 4.70593876 -18.0488168 3.97456386 -15.31079102 3.24291992 C-14.50580044 3.02856041 -13.70080986 2.8142009 -12.87142563 2.59334564 C-3.17815196 0 -3.17815196 0 0 0 Z " fill="#FEFEFE" transform="translate(1432,124)"/>
<path d="M0 0 C16.49423389 13.15042838 30.77909681 32.21144497 33.29296875 53.828125 C35.2118764 80.28592082 31.12152655 103.12862086 13.91796875 123.86328125 C2.9762227 136.22159264 -9.94662101 144.85115334 -25.70703125 149.828125 C-26.7021875 150.1478125 -27.69734375 150.4675 -28.72265625 150.796875 C-44.6332606 155.02925251 -64.43359615 155.26763742 -79.70703125 148.828125 C-80.38024414 148.55436035 -81.05345703 148.2805957 -81.74707031 147.99853516 C-91.62059002 143.93050392 -99.86671044 139.19926126 -107.70703125 131.828125 C-108.55652344 131.06886719 -109.40601563 130.30960938 -110.28125 129.52734375 C-124.99145611 115.76327647 -134.81366896 95.82639729 -135.81689453 75.61474609 C-136.44938121 50.93713567 -130.66055509 30.17859688 -114.70703125 10.828125 C-112.20841002 8.24586791 -109.54014133 6.03330318 -106.70703125 3.828125 C-105.83433594 3.10882812 -104.96164062 2.38953125 -104.0625 1.6484375 C-96.44539251 -4.40853954 -88.68052176 -8.58056087 -79.70703125 -12.171875 C-78.66675781 -12.60757812 -77.62648438 -13.04328125 -76.5546875 -13.4921875 C-51.15874619 -22.4702335 -21.11264804 -15.7018689 0 0 Z " fill="#000000" transform="translate(1800.70703125,1392.171875)"/>
<path d="M0 0 C1.01642578 -0.020625 2.03285156 -0.04125 3.08007812 -0.0625 C20.9083413 -0.15340255 37.84559065 7.76113362 51.1875 19.25 C51.98671875 19.93707031 52.7859375 20.62414063 53.609375 21.33203125 C68.40035095 35.07743821 76.449855 54.1982034 77.3671875 74.16015625 C77.93772288 97.00900091 71.16998506 116.22437831 55.421875 132.9765625 C54.68453125 133.72679687 53.9471875 134.47703125 53.1875 135.25 C52.57390625 135.87648438 51.9603125 136.50296875 51.328125 137.1484375 C37.40724851 150.29593196 19.0893749 156.64227344 0.25 156.5 C-0.77029297 156.50773437 -1.79058594 156.51546875 -2.84179688 156.5234375 C-24.72430737 156.46757915 -43.40671988 147.40876336 -58.8125 132.25 C-72.62886932 118.09276631 -80.18362198 97.18273393 -80.375 77.5625 C-79.99272102 56.28954332 -70.80239673 35.94070286 -55.68530273 20.98168945 C-40.01869399 6.13735423 -21.27447875 0.10670585 0 0 Z " fill="#000000" transform="translate(1548.8125,1388.75)"/>
<path d="M0 0 C3.23325245 2.12167778 6.13556467 4.40644688 9 7 C9.67160156 7.58007812 10.34320312 8.16015625 11.03515625 8.7578125 C22.69860891 19.49987487 31.24058313 36.26312867 32.12109375 52.19042969 C32.52914545 62.46109087 32.49674726 72.21191631 29 82 C28.64808594 82.99128906 28.29617188 83.98257812 27.93359375 85.00390625 C20.39711402 104.47936376 7.07308707 117.34854672 -11.5625 126.3125 C-13.0305531 126.90339794 -14.5104441 127.46561859 -16 128 C-16.79535156 128.29777344 -17.59070312 128.59554688 -18.41015625 128.90234375 C-36.080124 134.41944159 -56.52163888 132.01841615 -72.8125 123.75 C-90.01925521 113.83924639 -102.56793552 98.96925895 -108.60986328 79.95581055 C-110.43272868 72.99003641 -110.49867449 65.91441322 -110.5625 58.75 C-110.57732422 57.57808105 -110.59214844 56.40616211 -110.60742188 55.19873047 C-110.39742887 37.46182169 -101.95401311 21.40158564 -89.828125 8.73046875 C-79.77104294 -0.91578479 -68.42814774 -6.61427044 -55 -10 C-54.38656738 -10.1750708 -53.77313477 -10.3501416 -53.14111328 -10.53051758 C-34.42776707 -14.63379748 -16.05494218 -9.38200985 0 0 Z " fill="#000000" transform="translate(1398,1414)"/>
<path d="M0 0 C11.37750293 -0.6935094 21.90795541 -0.23608477 31.34863281 7.00732422 C37.48686674 12.79641089 41.22211875 18.6518629 41.91503906 27.14013672 C42.57503906 27.14013672 43.23503906 27.14013672 43.91503906 27.14013672 C43.94221598 29.20256289 43.96151487 31.26509375 43.97753906 33.32763672 C43.98914062 34.47619141 44.00074219 35.62474609 44.01269531 36.80810547 C43.79820536 44.12650267 43.79820536 44.12650267 41.54003906 46.71826172 C41.00378906 47.18748047 40.46753906 47.65669922 39.91503906 48.14013672 C39.44066406 48.73310547 38.96628906 49.32607422 38.47753906 49.93701172 C33.78306395 55.80510561 28.36371343 59.38316566 21.91503906 63.14013672 C20.71814453 63.91550781 20.71814453 63.91550781 19.49707031 64.70654297 C16.48090908 66.38117409 13.53860362 67.30617389 10.22753906 68.26513672 C5.97330612 69.4531701 5.97330612 69.4531701 1.91503906 71.14013672 C0.53647255 71.29129375 -0.84821866 71.38893336 -2.23339844 71.45654297 C-3.06790527 71.4986792 -3.90241211 71.54081543 -4.76220703 71.58422852 C-6.09759521 71.64284058 -6.09759521 71.64284058 -7.45996094 71.70263672 C-8.36955566 71.74364502 -9.27915039 71.78465332 -10.21630859 71.8269043 C-12.83894291 71.93962296 -15.46172996 72.04239614 -18.08496094 72.14013672 C-19.81746094 72.20587891 -19.81746094 72.20587891 -21.58496094 72.27294922 C-35.58522587 72.53925861 -48.26246983 70.95121218 -58.70996094 61.01513672 C-62.08496094 57.58677703 -62.08496094 57.58677703 -62.08496094 54.14013672 C-62.74496094 54.14013672 -63.40496094 54.14013672 -64.08496094 54.14013672 C-66.22574066 49.85857727 -67.07583873 45.83132377 -66.08496094 41.14013672 C-58.37776122 23.46174736 -42.26800728 12.67239513 -24.95996094 5.64013672 C-16.63317238 2.42564533 -8.91843931 0.59943608 0 0 Z " fill="#FBFBFB" transform="translate(1625.0849609375,996.85986328125)"/>
<path d="M0 0 C2.97 0 5.94 0 9 0 C13.92896 24.61632068 18.53882667 49.27544992 22.85327148 74.00708008 C23.03111679 75.02624008 23.2089621 76.04540009 23.39219666 77.09544373 C23.74198195 79.10381971 24.09052733 81.11241209 24.4377594 83.12123108 C25.31540259 88.17834119 26.22530506 93.22667772 27.18945312 98.26806641 C27.38033508 99.27658157 27.57121704 100.28509674 27.7678833 101.32417297 C28.13206671 103.23879412 28.5030735 105.15213439 28.88201904 107.06388855 C29.04373596 107.91783707 29.20545288 108.77178558 29.37207031 109.65161133 C29.51783508 110.39760086 29.66359985 111.14359039 29.81378174 111.91218567 C30.01978985 114.22187691 29.77446602 115.82009475 29 118 C27.29199219 119.44116211 27.29199219 119.44116211 25.046875 120.77734375 C24.20970947 121.28475098 23.37254395 121.7921582 22.51000977 122.31494141 C21.14380493 123.11810791 21.14380493 123.11810791 19.75 123.9375 C17.83696543 125.08938857 15.92421339 126.24174646 14.01171875 127.39453125 C12.52744385 128.28132568 12.52744385 128.28132568 11.01318359 129.18603516 C5.27363121 132.64129963 -0.39163506 136.21752002 -6.06933594 139.77319336 C-10.29790016 142.40132316 -14.49553031 144.87594112 -19 147 C-18.53843189 139.00758381 -17.79991137 131.14493701 -16.6015625 123.23046875 C-15.63308325 116.64316838 -14.90891864 110.02198566 -14.14111328 103.40893555 C-13.52701817 98.17829503 -12.86166288 92.96199654 -12.09790039 87.75097656 C-10.96819005 79.88974502 -9.96049993 72.01509709 -8.96714592 64.13562775 C-8.64466943 61.57980126 -8.3203491 59.02421474 -7.99549866 56.46868896 C-7.07355019 49.21515553 -6.15310354 41.96143642 -5.23803711 34.70703125 C-4.67475829 30.2425572 -4.10795393 25.77854299 -3.53882027 21.31481171 C-3.32338255 19.61965504 -3.10928838 17.92432707 -2.89655876 16.22882843 C-2.60095965 13.87379434 -2.30088909 11.51937095 -1.99975586 9.16503906 C-1.86960083 8.11478043 -1.86960083 8.11478043 -1.73681641 7.04330444 C-1.11399889 2.22799778 -1.11399889 2.22799778 0 0 Z " fill="#020202" transform="translate(1093,286)"/>
<path d="M0 0 C0.66 0.33 1.32 0.66 2 1 C0.04761147 3.00612399 -1.91137822 5.00492433 -3.875 7 C-4.43058594 7.57234375 -4.98617188 8.1446875 -5.55859375 8.734375 C-7.00134404 10.19450782 -8.4974374 11.60149298 -10 13 C-10.66 13 -11.32 13 -12 13 C-10.61536056 9.87250593 -9.00477577 7.7595015 -6.5625 5.375 C-5.96566406 4.78460937 -5.36882812 4.19421875 -4.75390625 3.5859375 C-3 2 -3 2 0 0 Z " fill="#CDCDCD" transform="translate(1578,1015)"/>
</svg>
